# Blender 4.3.2
# www.blender.org
mtllib african_decor.mtl
o Decor_Drum
v 0.095000 0.000000 0.000000
v 0.115000 0.030000 0.000000
v 0.140000 0.100000 0.000000
v 0.160000 0.200000 0.000000
v 0.090000 0.300000 0.000000
v 0.060000 0.340000 0.000000
v 0.070000 0.400000 0.000000
v 0.140000 0.520000 0.000000
v 0.170000 0.560000 0.000000
v 0.172000 0.580000 0.000000
v 0.093175 0.000000 -0.018534
v 0.112790 0.030000 -0.022435
v 0.137310 0.100000 -0.027313
v 0.156926 0.200000 -0.031214
v 0.127502 0.260000 -0.025362
v 0.088271 0.300000 -0.017558
v 0.058847 0.340000 -0.011705
v 0.068655 0.400000 -0.013656
v 0.098079 0.460000 -0.019509
v 0.137310 0.520000 -0.027313
v 0.166733 0.560000 -0.033165
v 0.168695 0.580000 -0.033556
v 0.087769 0.000000 -0.036355
v 0.106246 0.030000 -0.044009
v 0.129343 0.100000 -0.053576
v 0.147821 0.200000 -0.061229
v 0.120104 0.260000 -0.049749
v 0.083149 0.300000 -0.034442
v 0.055433 0.340000 -0.022961
v 0.064672 0.400000 -0.026788
v 0.092388 0.460000 -0.038268
v 0.129343 0.520000 -0.053576
v 0.157060 0.560000 -0.065056
v 0.158907 0.580000 -0.065822
v 0.078990 0.000000 -0.052779
v 0.095619 0.030000 -0.063891
v 0.116406 0.100000 -0.077780
v 0.133035 0.200000 -0.088891
v 0.108091 0.260000 -0.072224
v 0.074832 0.300000 -0.050001
v 0.049888 0.340000 -0.033334
v 0.058203 0.400000 -0.038890
v 0.083147 0.460000 -0.055557
v 0.116406 0.520000 -0.077780
v 0.141350 0.560000 -0.094447
v 0.143013 0.580000 -0.095558
v 0.067175 0.000000 -0.067175
v 0.081317 0.030000 -0.081317
v 0.098995 0.100000 -0.098995
v 0.113137 0.200000 -0.113137
v 0.091924 0.260000 -0.091924
v 0.063640 0.300000 -0.063640
v 0.042426 0.340000 -0.042426
v 0.049497 0.400000 -0.049497
v 0.070711 0.460000 -0.070711
v 0.098995 0.520000 -0.098995
v 0.120208 0.560000 -0.120208
v 0.121622 0.580000 -0.121622
v 0.052779 0.000000 -0.078990
v 0.063891 0.030000 -0.095619
v 0.077780 0.100000 -0.116406
v 0.088891 0.200000 -0.133035
v 0.072224 0.260000 -0.108091
v 0.050001 0.300000 -0.074832
v 0.033334 0.340000 -0.049888
v 0.038890 0.400000 -0.058203
v 0.055557 0.460000 -0.083147
v 0.077780 0.520000 -0.116406
v 0.094447 0.560000 -0.141350
v 0.095558 0.580000 -0.143013
v 0.036355 0.000000 -0.087769
v 0.044009 0.030000 -0.106246
v 0.053576 0.100000 -0.129343
v 0.061229 0.200000 -0.147821
v 0.049749 0.260000 -0.120104
v 0.034442 0.300000 -0.083149
v 0.022961 0.340000 -0.055433
v 0.026788 0.400000 -0.064672
v 0.038268 0.460000 -0.092388
v 0.053576 0.520000 -0.129343
v 0.065056 0.560000 -0.157059
v 0.065822 0.580000 -0.158907
v 0.018534 0.000000 -0.093175
v 0.022435 0.030000 -0.112790
v 0.027313 0.100000 -0.137310
v 0.031214 0.200000 -0.156926
v 0.025362 0.260000 -0.127502
v 0.017558 0.300000 -0.088271
v 0.011705 0.340000 -0.058847
v 0.013656 0.400000 -0.068655
v 0.019509 0.460000 -0.098078
v 0.027313 0.520000 -0.137310
v 0.033165 0.560000 -0.166733
v 0.033556 0.580000 -0.168695
v -0.000000 0.000000 -0.095000
v -0.000000 0.030000 -0.115000
v 0.000000 0.100000 -0.140000
v -0.000000 0.200000 -0.160000
v -0.000000 0.260000 -0.130000
v -0.000000 0.300000 -0.090000
v -0.000000 0.340000 -0.060000
v 0.000000 0.400000 -0.070000
v -0.000000 0.460000 -0.100000
v 0.000000 0.520000 -0.140000
v -0.000000 0.560000 -0.170000
v -0.000000 0.580000 -0.172000
v -0.018534 0.000000 -0.093175
v -0.022435 0.030000 -0.112790
v -0.027313 0.100000 -0.137310
v -0.031214 0.200000 -0.156926
v -0.025362 0.260000 -0.127502
v -0.017558 0.300000 -0.088271
v -0.011705 0.340000 -0.058847
v -0.013656 0.400000 -0.068655
v -0.019509 0.460000 -0.098078
v -0.027313 0.520000 -0.137310
v -0.033165 0.560000 -0.166733
v -0.033556 0.580000 -0.168695
v -0.036355 0.000000 -0.087769
v -0.044009 0.030000 -0.106246
v -0.053576 0.100000 -0.129343
v -0.061229 0.200000 -0.147821
v -0.049749 0.260000 -0.120104
v -0.034442 0.300000 -0.083149
v -0.022961 0.340000 -0.055433
v -0.026788 0.400000 -0.064672
v -0.038268 0.460000 -0.092388
v -0.053576 0.520000 -0.129343
v -0.065056 0.560000 -0.157059
v -0.065822 0.580000 -0.158907
v -0.052779 0.000000 -0.078990
v -0.063891 0.030000 -0.095619
v -0.077780 0.100000 -0.116406
v -0.088891 0.200000 -0.133035
v -0.072224 0.260000 -0.108091
v -0.050001 0.300000 -0.074832
v -0.033334 0.340000 -0.049888
v -0.038890 0.400000 -0.058203
v -0.055557 0.460000 -0.083147
v -0.077780 0.520000 -0.116406
v -0.094447 0.560000 -0.141350
v -0.095558 0.580000 -0.143013
v -0.067175 0.000000 -0.067175
v -0.081317 0.030000 -0.081317
v -0.098995 0.100000 -0.098995
v -0.113137 0.200000 -0.113137
v -0.091924 0.260000 -0.091924
v -0.063640 0.300000 -0.063640
v -0.042426 0.340000 -0.042426
v -0.049497 0.400000 -0.049497
v -0.070711 0.460000 -0.070711
v -0.098995 0.520000 -0.098995
v -0.120208 0.560000 -0.120208
v -0.121622 0.580000 -0.121622
v -0.078990 0.000000 -0.052779
v -0.095619 0.030000 -0.063891
v -0.116406 0.100000 -0.077780
v -0.133035 0.200000 -0.088891
v -0.108091 0.260000 -0.072224
v -0.074832 0.300000 -0.050001
v -0.049888 0.340000 -0.033334
v -0.058203 0.400000 -0.038890
v -0.083147 0.460000 -0.055557
v -0.116406 0.520000 -0.077780
v -0.141350 0.560000 -0.094447
v -0.143013 0.580000 -0.095558
v -0.087769 0.000000 -0.036355
v -0.106246 0.030000 -0.044009
v -0.129343 0.100000 -0.053576
v -0.147821 0.200000 -0.061229
v -0.120104 0.260000 -0.049749
v -0.083149 0.300000 -0.034441
v -0.055433 0.340000 -0.022961
v -0.064672 0.400000 -0.026788
v -0.092388 0.460000 -0.038268
v -0.129343 0.520000 -0.053576
v -0.157059 0.560000 -0.065056
v -0.158907 0.580000 -0.065821
v -0.093175 0.000000 -0.018534
v -0.112790 0.030000 -0.022435
v -0.137310 0.100000 -0.027313
v -0.156926 0.200000 -0.031214
v -0.127502 0.260000 -0.025362
v -0.088271 0.300000 -0.017558
v -0.058847 0.340000 -0.011705
v -0.068655 0.400000 -0.013656
v -0.098078 0.460000 -0.019509
v -0.137310 0.520000 -0.027313
v -0.166733 0.560000 -0.033165
v -0.168695 0.580000 -0.033555
v -0.095000 0.000000 0.000000
v -0.115000 0.030000 0.000000
v -0.140000 0.100000 0.000000
v -0.160000 0.200000 0.000000
v -0.130000 0.260000 0.000000
v -0.090000 0.300000 0.000000
v -0.060000 0.340000 0.000000
v -0.070000 0.400000 0.000000
v -0.100000 0.460000 0.000000
v -0.140000 0.520000 0.000000
v -0.170000 0.560000 0.000000
v -0.172000 0.580000 0.000000
v -0.093175 0.000000 0.018534
v -0.112790 0.030000 0.022435
v -0.137310 0.100000 0.027313
v -0.156926 0.200000 0.031214
v -0.127502 0.260000 0.025362
v -0.088271 0.300000 0.017558
v -0.058847 0.340000 0.011705
v -0.068655 0.400000 0.013656
v -0.098078 0.460000 0.019509
v -0.137310 0.520000 0.027313
v -0.166733 0.560000 0.033165
v -0.168695 0.580000 0.033556
v -0.087769 0.000000 0.036355
v -0.106246 0.030000 0.044009
v -0.129343 0.100000 0.053576
v -0.147821 0.200000 0.061229
v -0.120104 0.260000 0.049749
v -0.083149 0.300000 0.034442
v -0.055433 0.340000 0.022961
v -0.064672 0.400000 0.026788
v -0.092388 0.460000 0.038268
v -0.129343 0.520000 0.053576
v -0.157059 0.560000 0.065056
v -0.158907 0.580000 0.065822
v -0.078990 0.000000 0.052779
v -0.095619 0.030000 0.063891
v -0.116406 0.100000 0.077780
v -0.133035 0.200000 0.088891
v -0.108091 0.260000 0.072224
v -0.074832 0.300000 0.050001
v -0.049888 0.340000 0.033334
v -0.058203 0.400000 0.038890
v -0.083147 0.460000 0.055557
v -0.116406 0.520000 0.077780
v -0.141350 0.560000 0.094447
v -0.143013 0.580000 0.095558
v -0.067175 0.000000 0.067175
v -0.081317 0.030000 0.081317
v -0.098995 0.100000 0.098995
v -0.113137 0.200000 0.113137
v -0.091924 0.260000 0.091924
v -0.063640 0.300000 0.063640
v -0.042426 0.340000 0.042426
v -0.049497 0.400000 0.049497
v -0.070711 0.460000 0.070711
v -0.098995 0.520000 0.098995
v -0.120208 0.560000 0.120208
v -0.121622 0.580000 0.121622
v -0.052779 0.000000 0.078990
v -0.063891 0.030000 0.095619
v -0.077780 0.100000 0.116406
v -0.088891 0.200000 0.133035
v -0.072224 0.260000 0.108091
v -0.050001 0.300000 0.074832
v -0.033334 0.340000 0.049888
v -0.038890 0.400000 0.058203
v -0.055557 0.460000 0.083147
v -0.077780 0.520000 0.116406
v -0.094447 0.560000 0.141350
v -0.095558 0.580000 0.143013
v -0.036355 0.000000 0.087769
v -0.044009 0.030000 0.106246
v -0.053576 0.100000 0.129343
v -0.061229 0.200000 0.147821
v -0.049749 0.260000 0.120104
v -0.034441 0.300000 0.083149
v -0.022961 0.340000 0.055433
v -0.026788 0.400000 0.064672
v -0.038268 0.460000 0.092388
v -0.053576 0.520000 0.129343
v -0.065056 0.560000 0.157059
v -0.065821 0.580000 0.158907
v -0.018534 0.000000 0.093175
v -0.022435 0.030000 0.112790
v -0.027313 0.100000 0.137310
v -0.031214 0.200000 0.156926
v -0.025362 0.260000 0.127502
v -0.017558 0.300000 0.088271
v -0.011705 0.340000 0.058847
v -0.013656 0.400000 0.068655
v -0.019509 0.460000 0.098078
v -0.027313 0.520000 0.137310
v -0.033165 0.560000 0.166733
v -0.033555 0.580000 0.168695
v 0.000000 0.000000 0.095000
v 0.000000 0.030000 0.115000
v 0.000000 0.100000 0.140000
v 0.000000 0.200000 0.160000
v -0.000000 0.260000 0.130000
v 0.000000 0.300000 0.090000
v 0.000000 0.340000 0.060000
v 0.000000 0.400000 0.070000
v 0.000000 0.460000 0.100000
v 0.000000 0.520000 0.140000
v 0.000000 0.560000 0.170000
v 0.000000 0.580000 0.172000
v 0.018534 0.000000 0.093175
v 0.022435 0.030000 0.112790
v 0.027313 0.100000 0.137310
v 0.031214 0.200000 0.156926
v 0.025362 0.260000 0.127502
v 0.017558 0.300000 0.088271
v 0.011705 0.340000 0.058847
v 0.013656 0.400000 0.068655
v 0.019509 0.460000 0.098078
v 0.027313 0.520000 0.137310
v 0.033165 0.560000 0.166733
v 0.033556 0.580000 0.168695
v 0.036355 0.000000 0.087769
v 0.044009 0.030000 0.106246
v 0.053576 0.100000 0.129343
v 0.061229 0.200000 0.147821
v 0.049749 0.260000 0.120104
v 0.034442 0.300000 0.083149
v 0.022961 0.340000 0.055433
v 0.026788 0.400000 0.064672
v 0.038268 0.460000 0.092388
v 0.053576 0.520000 0.129343
v 0.065056 0.560000 0.157059
v 0.065822 0.580000 0.158907
v 0.052779 0.000000 0.078990
v 0.063891 0.030000 0.095619
v 0.077780 0.100000 0.116406
v 0.088891 0.200000 0.133035
v 0.072224 0.260000 0.108091
v 0.050001 0.300000 0.074832
v 0.033334 0.340000 0.049888
v 0.038890 0.400000 0.058203
v 0.055557 0.460000 0.083147
v 0.077780 0.520000 0.116406
v 0.094447 0.560000 0.141350
v 0.095558 0.580000 0.143013
v 0.067175 0.000000 0.067175
v 0.081317 0.030000 0.081317
v 0.098995 0.100000 0.098995
v 0.113137 0.200000 0.113137
v 0.091924 0.260000 0.091924
v 0.063640 0.300000 0.063640
v 0.042426 0.340000 0.042426
v 0.049497 0.400000 0.049497
v 0.070711 0.460000 0.070711
v 0.098995 0.520000 0.098995
v 0.120208 0.560000 0.120208
v 0.121622 0.580000 0.121622
v 0.078990 0.000000 0.052779
v 0.095619 0.030000 0.063891
v 0.116406 0.100000 0.077780
v 0.133035 0.200000 0.088891
v 0.108091 0.260000 0.072224
v 0.074832 0.300000 0.050001
v 0.049888 0.340000 0.033334
v 0.058203 0.400000 0.038890
v 0.083147 0.460000 0.055557
v 0.116406 0.520000 0.077780
v 0.141350 0.560000 0.094447
v 0.143013 0.580000 0.095558
v 0.087769 0.000000 0.036355
v 0.106246 0.030000 0.044009
v 0.129343 0.100000 0.053576
v 0.147821 0.200000 0.061229
v 0.120104 0.260000 0.049749
v 0.083149 0.300000 0.034441
v 0.055433 0.340000 0.022961
v 0.064672 0.400000 0.026788
v 0.092388 0.460000 0.038268
v 0.129343 0.520000 0.053576
v 0.157059 0.560000 0.065056
v 0.158907 0.580000 0.065821
v 0.093175 0.000000 0.018534
v 0.112790 0.030000 0.022435
v 0.137310 0.100000 0.027313
v 0.156926 0.200000 0.031214
v 0.127502 0.260000 0.025362
v 0.088271 0.300000 0.017558
v 0.058847 0.340000 0.011705
v 0.068655 0.400000 0.013656
v 0.098078 0.460000 0.019509
v 0.137310 0.520000 0.027313
v 0.166733 0.560000 0.033165
v 0.168695 0.580000 0.033555
v 0.130000 0.260000 0.000000
v 0.100000 0.460000 -0.000000
vn -0.8321 0.5547 -0.0000
vn -0.8951 0.4459 -0.0000
vn -0.9640 0.2658 -0.0000
vn -0.9915 -0.1301 -0.0000
vn -0.7535 -0.6574 -0.0000
vn -0.9701 -0.2428 -0.0000
vn -0.9501 0.3120 -0.0000
vn -0.8158 0.5784 -0.0000
vn -0.9339 0.3575 -0.0000
vn -0.7610 -0.6488 -0.0000
vn -0.8161 0.5547 0.1623
vn -0.8779 0.4459 0.1746
vn -0.9455 0.2658 0.1881
vn -0.9724 -0.1301 0.1934
vn -0.7990 -0.5800 0.1589
vn -0.7391 -0.6574 0.1470
vn -0.9514 -0.2428 0.1893
vn -0.9318 0.3120 0.1854
vn -0.8473 0.5036 0.1685
vn -0.8001 0.5784 0.1591
vn -0.9160 0.3575 0.1822
vn -0.7463 -0.6488 0.1485
vn -0.7687 0.5547 0.3184
vn -0.8270 0.4459 0.3425
vn -0.8907 0.2658 0.3689
vn -0.9160 -0.1301 0.3794
vn -0.7526 -0.5800 0.3117
vn -0.6962 -0.6574 0.2884
vn -0.8962 -0.2428 0.3712
vn -0.8778 0.3120 0.3636
vn -0.7982 0.5036 0.3306
vn -0.7537 0.5784 0.3122
vn -0.8628 0.3575 0.3574
vn -0.7030 -0.6488 0.2912
vn -0.6918 0.5547 0.4623
vn -0.7443 0.4459 0.4973
vn -0.8016 0.2658 0.5356
vn -0.8244 -0.1301 0.5508
vn -0.6773 -0.5800 0.4526
vn -0.6265 -0.6574 0.4186
vn -0.8066 -0.2428 0.5390
vn -0.7900 0.3120 0.5278
vn -0.7183 0.5036 0.4800
vn -0.6783 0.5784 0.4532
vn -0.7765 0.3575 0.5188
vn -0.6327 -0.6488 0.4228
vn -0.5883 0.5547 0.5883
vn -0.6329 0.4459 0.6329
vn -0.6817 0.2658 0.6817
vn -0.7011 -0.1301 0.7011
vn -0.5760 -0.5800 0.5760
vn -0.5328 -0.6574 0.5328
vn -0.6860 -0.2428 0.6860
vn -0.6718 0.3120 0.6718
vn -0.6109 0.5036 0.6109
vn -0.5768 0.5784 0.5768
vn -0.6604 0.3575 0.6604
vn -0.5381 -0.6488 0.5381
vn -0.4623 0.5547 0.6918
vn -0.4973 0.4459 0.7443
vn -0.5356 0.2658 0.8016
vn -0.5508 -0.1301 0.8244
vn -0.4526 -0.5800 0.6773
vn -0.4186 -0.6574 0.6265
vn -0.5390 -0.2428 0.8066
vn -0.5278 0.3120 0.7900
vn -0.4800 0.5036 0.7183
vn -0.4532 0.5784 0.6783
vn -0.5188 0.3575 0.7765
vn -0.4228 -0.6488 0.6327
vn -0.3184 0.5547 0.7687
vn -0.3425 0.4459 0.8270
vn -0.3689 0.2658 0.8907
vn -0.3794 -0.1301 0.9160
vn -0.3117 -0.5800 0.7526
vn -0.2884 -0.6574 0.6962
vn -0.3712 -0.2428 0.8962
vn -0.3636 0.3120 0.8778
vn -0.3306 0.5036 0.7982
vn -0.3122 0.5784 0.7537
vn -0.3574 0.3575 0.8628
vn -0.2912 -0.6488 0.7030
vn -0.1623 0.5547 0.8161
vn -0.1746 0.4459 0.8779
vn -0.1881 0.2658 0.9455
vn -0.1934 -0.1301 0.9724
vn -0.1589 -0.5800 0.7990
vn -0.1470 -0.6574 0.7391
vn -0.1893 -0.2428 0.9514
vn -0.1854 0.3120 0.9318
vn -0.1685 0.5036 0.8473
vn -0.1591 0.5784 0.8001
vn -0.1822 0.3575 0.9160
vn -0.1485 -0.6488 0.7463
vn -0.0000 0.5547 0.8321
vn -0.0000 0.4459 0.8951
vn -0.0000 0.2658 0.9640
vn -0.0000 -0.1301 0.9915
vn -0.0000 -0.5800 0.8146
vn -0.0000 -0.6574 0.7535
vn -0.0000 -0.2428 0.9701
vn -0.0000 0.3120 0.9501
vn -0.0000 0.5036 0.8639
vn -0.0000 0.5784 0.8158
vn -0.0000 0.3575 0.9339
vn -0.0000 -0.6488 0.7610
vn 0.1623 0.5547 0.8161
vn 0.1746 0.4459 0.8779
vn 0.1881 0.2658 0.9455
vn 0.1934 -0.1301 0.9724
vn 0.1589 -0.5800 0.7990
vn 0.1470 -0.6574 0.7391
vn 0.1893 -0.2428 0.9514
vn 0.1854 0.3120 0.9318
vn 0.1685 0.5036 0.8473
vn 0.1591 0.5784 0.8001
vn 0.1822 0.3575 0.9160
vn 0.1485 -0.6488 0.7463
vn 0.3184 0.5547 0.7687
vn 0.3425 0.4459 0.8270
vn 0.3689 0.2658 0.8907
vn 0.3794 -0.1301 0.9160
vn 0.3117 -0.5800 0.7526
vn 0.2884 -0.6574 0.6962
vn 0.3712 -0.2428 0.8962
vn 0.3636 0.3120 0.8778
vn 0.3306 0.5036 0.7982
vn 0.3122 0.5784 0.7537
vn 0.3574 0.3575 0.8628
vn 0.2912 -0.6488 0.7030
vn 0.4623 0.5547 0.6918
vn 0.4973 0.4459 0.7443
vn 0.5356 0.2658 0.8016
vn 0.5508 -0.1301 0.8244
vn 0.4526 -0.5800 0.6773
vn 0.4186 -0.6574 0.6265
vn 0.5390 -0.2428 0.8066
vn 0.5278 0.3120 0.7900
vn 0.4800 0.5036 0.7183
vn 0.4532 0.5784 0.6783
vn 0.5188 0.3575 0.7765
vn 0.4228 -0.6488 0.6327
vn 0.5883 0.5547 0.5883
vn 0.6329 0.4459 0.6329
vn 0.6817 0.2658 0.6817
vn 0.7011 -0.1301 0.7011
vn 0.5760 -0.5800 0.5760
vn 0.5328 -0.6574 0.5328
vn 0.6860 -0.2428 0.6860
vn 0.6718 0.3120 0.6718
vn 0.6109 0.5036 0.6109
vn 0.5768 0.5784 0.5768
vn 0.6604 0.3575 0.6604
vn 0.5381 -0.6488 0.5381
vn 0.6918 0.5547 0.4623
vn 0.7443 0.4459 0.4973
vn 0.8016 0.2658 0.5356
vn 0.8244 -0.1301 0.5508
vn 0.6773 -0.5800 0.4526
vn 0.6265 -0.6574 0.4186
vn 0.8066 -0.2428 0.5390
vn 0.7900 0.3120 0.5278
vn 0.7183 0.5036 0.4800
vn 0.6783 0.5784 0.4532
vn 0.7765 0.3575 0.5188
vn 0.6327 -0.6488 0.4228
vn 0.7687 0.5547 0.3184
vn 0.8270 0.4459 0.3425
vn 0.8907 0.2658 0.3689
vn 0.9160 -0.1301 0.3794
vn 0.7526 -0.5800 0.3117
vn 0.6962 -0.6574 0.2884
vn 0.8962 -0.2428 0.3712
vn 0.8778 0.3120 0.3636
vn 0.7982 0.5036 0.3306
vn 0.7537 0.5784 0.3122
vn 0.8628 0.3575 0.3574
vn 0.7030 -0.6488 0.2912
vn 0.8161 0.5547 0.1623
vn 0.8779 0.4459 0.1746
vn 0.9455 0.2658 0.1881
vn 0.9724 -0.1301 0.1934
vn 0.7990 -0.5800 0.1589
vn 0.7391 -0.6574 0.1470
vn 0.9514 -0.2428 0.1893
vn 0.9318 0.3120 0.1854
vn 0.8473 0.5036 0.1685
vn 0.8001 0.5784 0.1591
vn 0.9160 0.3575 0.1822
vn 0.7463 -0.6488 0.1485
vn 0.8321 0.5547 -0.0000
vn 0.8951 0.4459 -0.0000
vn 0.9640 0.2658 -0.0000
vn 0.9915 -0.1301 -0.0000
vn 0.8146 -0.5800 -0.0000
vn 0.7535 -0.6574 -0.0000
vn 0.9701 -0.2428 -0.0000
vn 0.9501 0.3120 -0.0000
vn 0.8639 0.5036 -0.0000
vn 0.8158 0.5784 -0.0000
vn 0.9339 0.3575 -0.0000
vn 0.7610 -0.6488 -0.0000
vn 0.8161 0.5547 -0.1623
vn 0.8779 0.4459 -0.1746
vn 0.9455 0.2658 -0.1881
vn 0.9724 -0.1301 -0.1934
vn 0.7990 -0.5800 -0.1589
vn 0.7391 -0.6574 -0.1470
vn 0.9514 -0.2428 -0.1893
vn 0.9318 0.3120 -0.1854
vn 0.8473 0.5036 -0.1685
vn 0.8001 0.5784 -0.1591
vn 0.9160 0.3575 -0.1822
vn 0.7463 -0.6488 -0.1485
vn 0.7687 0.5547 -0.3184
vn 0.8270 0.4459 -0.3425
vn 0.8907 0.2658 -0.3689
vn 0.9160 -0.1301 -0.3794
vn 0.7526 -0.5800 -0.3117
vn 0.6962 -0.6574 -0.2884
vn 0.8962 -0.2428 -0.3712
vn 0.8778 0.3120 -0.3636
vn 0.7982 0.5036 -0.3306
vn 0.7537 0.5784 -0.3122
vn 0.8628 0.3575 -0.3574
vn 0.7030 -0.6488 -0.2912
vn 0.6918 0.5547 -0.4623
vn 0.7443 0.4459 -0.4973
vn 0.8016 0.2658 -0.5356
vn 0.8244 -0.1301 -0.5508
vn 0.6773 -0.5800 -0.4526
vn 0.6265 -0.6574 -0.4186
vn 0.8066 -0.2428 -0.5390
vn 0.7900 0.3120 -0.5278
vn 0.7183 0.5036 -0.4800
vn 0.6783 0.5784 -0.4532
vn 0.7765 0.3575 -0.5188
vn 0.6327 -0.6488 -0.4228
vn 0.5883 0.5547 -0.5883
vn 0.6329 0.4459 -0.6329
vn 0.6817 0.2658 -0.6817
vn 0.7011 -0.1301 -0.7011
vn 0.5760 -0.5800 -0.5760
vn 0.5328 -0.6574 -0.5328
vn 0.6860 -0.2428 -0.6860
vn 0.6718 0.3120 -0.6718
vn 0.6109 0.5036 -0.6109
vn 0.5768 0.5784 -0.5768
vn 0.6604 0.3575 -0.6604
vn 0.5381 -0.6488 -0.5381
vn 0.4623 0.5547 -0.6918
vn 0.4973 0.4459 -0.7443
vn 0.5356 0.2658 -0.8016
vn 0.5508 -0.1301 -0.8244
vn 0.4526 -0.5800 -0.6773
vn 0.4186 -0.6574 -0.6265
vn 0.5390 -0.2428 -0.8066
vn 0.5278 0.3120 -0.7900
vn 0.4800 0.5036 -0.7183
vn 0.4532 0.5784 -0.6783
vn 0.5188 0.3575 -0.7765
vn 0.4228 -0.6488 -0.6327
vn 0.3184 0.5547 -0.7687
vn 0.3425 0.4459 -0.8270
vn 0.3689 0.2658 -0.8907
vn 0.3794 -0.1301 -0.9160
vn 0.3117 -0.5800 -0.7526
vn 0.2884 -0.6574 -0.6962
vn 0.3712 -0.2428 -0.8962
vn 0.3636 0.3120 -0.8778
vn 0.3306 0.5036 -0.7982
vn 0.3122 0.5784 -0.7537
vn 0.3574 0.3575 -0.8628
vn 0.2912 -0.6488 -0.7030
vn 0.1623 0.5547 -0.8161
vn 0.1746 0.4459 -0.8779
vn 0.1881 0.2658 -0.9455
vn 0.1934 -0.1301 -0.9724
vn 0.1589 -0.5800 -0.7990
vn 0.1470 -0.6574 -0.7391
vn 0.1893 -0.2428 -0.9514
vn 0.1854 0.3120 -0.9318
vn 0.1685 0.5036 -0.8473
vn 0.1591 0.5784 -0.8001
vn 0.1822 0.3575 -0.9160
vn 0.1485 -0.6488 -0.7463
vn -0.0000 0.5547 -0.8321
vn -0.0000 0.4459 -0.8951
vn -0.0000 0.2658 -0.9640
vn -0.0000 -0.1301 -0.9915
vn -0.0000 -0.5800 -0.8146
vn -0.0000 -0.6574 -0.7535
vn -0.0000 -0.2428 -0.9701
vn -0.0000 0.3120 -0.9501
vn -0.0000 0.5036 -0.8639
vn -0.0000 0.5784 -0.8158
vn -0.0000 0.3575 -0.9339
vn -0.0000 -0.6488 -0.7610
vn -0.1623 0.5547 -0.8161
vn -0.1746 0.4459 -0.8779
vn -0.1881 0.2658 -0.9455
vn -0.1934 -0.1301 -0.9724
vn -0.1589 -0.5800 -0.7990
vn -0.1470 -0.6574 -0.7391
vn -0.1893 -0.2428 -0.9514
vn -0.1854 0.3120 -0.9318
vn -0.1685 0.5036 -0.8473
vn -0.1591 0.5784 -0.8001
vn -0.1822 0.3575 -0.9160
vn -0.1485 -0.6488 -0.7463
vn -0.3184 0.5547 -0.7687
vn -0.3425 0.4459 -0.8270
vn -0.3689 0.2658 -0.8907
vn -0.3794 -0.1301 -0.9160
vn -0.3117 -0.5800 -0.7526
vn -0.2884 -0.6574 -0.6962
vn -0.3712 -0.2428 -0.8962
vn -0.3636 0.3120 -0.8778
vn -0.3306 0.5036 -0.7982
vn -0.3122 0.5784 -0.7537
vn -0.3574 0.3575 -0.8628
vn -0.2912 -0.6488 -0.7030
vn -0.4623 0.5547 -0.6918
vn -0.4973 0.4459 -0.7443
vn -0.5356 0.2658 -0.8016
vn -0.5508 -0.1301 -0.8244
vn -0.4526 -0.5800 -0.6773
vn -0.4186 -0.6574 -0.6265
vn -0.5390 -0.2428 -0.8066
vn -0.5278 0.3120 -0.7900
vn -0.4800 0.5036 -0.7183
vn -0.4532 0.5784 -0.6783
vn -0.5188 0.3575 -0.7765
vn -0.4228 -0.6488 -0.6327
vn -0.5883 0.5547 -0.5883
vn -0.6329 0.4459 -0.6329
vn -0.6817 0.2658 -0.6817
vn -0.7011 -0.1301 -0.7011
vn -0.5760 -0.5800 -0.5760
vn -0.5328 -0.6574 -0.5328
vn -0.6860 -0.2428 -0.6860
vn -0.6718 0.3120 -0.6718
vn -0.6109 0.5036 -0.6109
vn -0.5768 0.5784 -0.5768
vn -0.6604 0.3575 -0.6604
vn -0.5381 -0.6488 -0.5381
vn -0.6918 0.5547 -0.4623
vn -0.7443 0.4459 -0.4973
vn -0.8016 0.2658 -0.5356
vn -0.8244 -0.1301 -0.5508
vn -0.6773 -0.5800 -0.4526
vn -0.6265 -0.6574 -0.4186
vn -0.8066 -0.2428 -0.5390
vn -0.7900 0.3120 -0.5278
vn -0.7183 0.5036 -0.4800
vn -0.6783 0.5784 -0.4532
vn -0.7765 0.3575 -0.5188
vn -0.6327 -0.6488 -0.4228
vn -0.7687 0.5547 -0.3184
vn -0.8270 0.4459 -0.3425
vn -0.8907 0.2658 -0.3689
vn -0.9160 -0.1301 -0.3794
vn -0.7526 -0.5800 -0.3117
vn -0.6962 -0.6574 -0.2884
vn -0.8962 -0.2428 -0.3712
vn -0.8778 0.3120 -0.3636
vn -0.7982 0.5036 -0.3306
vn -0.7537 0.5784 -0.3122
vn -0.8628 0.3575 -0.3574
vn -0.7030 -0.6488 -0.2912
vn -0.8161 0.5547 -0.1623
vn -0.8779 0.4459 -0.1746
vn -0.9455 0.2658 -0.1881
vn -0.9724 -0.1301 -0.1934
vn -0.7990 -0.5800 -0.1589
vn -0.7391 -0.6574 -0.1470
vn -0.9514 -0.2428 -0.1893
vn -0.9318 0.3120 -0.1854
vn -0.8473 0.5036 -0.1685
vn -0.8001 0.5784 -0.1591
vn -0.9160 0.3575 -0.1822
vn -0.7463 -0.6488 -0.1485
vn -0.8146 -0.5800 -0.0000
vn -0.8639 0.5036 -0.0000
s 1
usemtl Mat_Drum_Wood
f 7//7 384//384 19//19 18//18
f 383//383 5//5 16//16 15//15
f 384//384 8//8 20//20 19//19
f 5//5 6//6 17//17 16//16
f 8//8 9//9 21//21 20//20
f 6//6 7//7 18//18 17//17
f 1//1 2//2 12//12 11//11
f 11//11 12//12 24//24 23//23
f 18//18 19//19 31//31 30//30
f 15//15 16//16 28//28 27//27
f 19//19 20//20 32//32 31//31
f 16//16 17//17 29//29 28//28
f 20//20 21//21 33//33 32//32
f 17//17 18//18 30//30 29//29
f 30//30 31//31 43//43 42//42
f 27//27 28//28 40//40 39//39
f 31//31 32//32 44//44 43//43
f 28//28 29//29 41//41 40//40
f 32//32 33//33 45//45 44//44
f 29//29 30//30 42//42 41//41
f 23//23 24//24 36//36 35//35
f 43//43 44//44 56//56 55//55
f 40//40 41//41 53//53 52//52
f 44//44 45//45 57//57 56//56
f 41//41 42//42 54//54 53//53
f 35//35 36//36 48//48 47//47
f 42//42 43//43 55//55 54//54
f 39//39 40//40 52//52 51//51
f 56//56 57//57 69//69 68//68
f 53//53 54//54 66//66 65//65
f 47//47 48//48 60//60 59//59
f 54//54 55//55 67//67 66//66
f 51//51 52//52 64//64 63//63
f 55//55 56//56 68//68 67//67
f 52//52 53//53 65//65 64//64
f 65//65 66//66 78//78 77//77
f 59//59 60//60 72//72 71//71
f 66//66 67//67 79//79 78//78
f 63//63 64//64 76//76 75//75
f 67//67 68//68 80//80 79//79
f 64//64 65//65 77//77 76//76
f 68//68 69//69 81//81 80//80
f 71//71 72//72 84//84 83//83
f 78//78 79//79 91//91 90//90
f 75//75 76//76 88//88 87//87
f 79//79 80//80 92//92 91//91
f 76//76 77//77 89//89 88//88
f 80//80 81//81 93//93 92//92
f 77//77 78//78 90//90 89//89
f 91//91 92//92 104//104 103//103
f 88//88 89//89 101//101 100//100
f 92//92 93//93 105//105 104//104
f 89//89 90//90 102//102 101//101
f 83//83 84//84 96//96 95//95
f 90//90 91//91 103//103 102//102
f 87//87 88//88 100//100 99//99
f 100//100 101//101 113//113 112//112
f 104//104 105//105 117//117 116//116
f 101//101 102//102 114//114 113//113
f 95//95 96//96 108//108 107//107
f 102//102 103//103 115//115 114//114
f 99//99 100//100 112//112 111//111
f 103//103 104//104 116//116 115//115
f 113//113 114//114 126//126 125//125
f 107//107 108//108 120//120 119//119
f 114//114 115//115 127//127 126//126
f 111//111 112//112 124//124 123//123
f 115//115 116//116 128//128 127//127
f 112//112 113//113 125//125 124//124
f 116//116 117//117 129//129 128//128
f 119//119 120//120 132//132 131//131
f 126//126 127//127 139//139 138//138
f 123//123 124//124 136//136 135//135
f 127//127 128//128 140//140 139//139
f 124//124 125//125 137//137 136//136
f 128//128 129//129 141//141 140//140
f 125//125 126//126 138//138 137//137
f 135//135 136//136 148//148 147//147
f 139//139 140//140 152//152 151//151
f 136//136 137//137 149//149 148//148
f 140//140 141//141 153//153 152//152
f 137//137 138//138 150//150 149//149
f 131//131 132//132 144//144 143//143
f 138//138 139//139 151//151 150//150
f 148//148 149//149 161//161 160//160
f 152//152 153//153 165//165 164//164
f 149//149 150//150 162//162 161//161
f 143//143 144//144 156//156 155//155
f 150//150 151//151 163//163 162//162
f 147//147 148//148 160//160 159//159
f 151//151 152//152 164//164 163//163
f 164//164 165//165 177//177 176//176
f 161//161 162//162 174//174 173//173
f 155//155 156//156 168//168 167//167
f 162//162 163//163 175//175 174//174
f 159//159 160//160 172//172 171//171
f 163//163 164//164 176//176 175//175
f 160//160 161//161 173//173 172//172
f 167//167 168//168 180//180 179//179
f 174//174 175//175 187//187 186//186
f 171//171 172//172 184//184 183//183
f 175//175 176//176 188//188 187//187
f 172//172 173//173 185//185 184//184
f 176//176 177//177 189//189 188//188
f 173//173 174//174 186//186 185//185
f 183//183 184//184 196//196 195//195
f 187//187 188//188 200//200 199//199
f 184//184 185//185 197//197 196//196
f 188//188 189//189 201//201 200//200
f 185//185 186//186 198//198 197//197
f 179//179 180//180 192//192 191//191
f 186//186 187//187 199//199 198//198
f 199//199 200//200 212//212 211//211
f 196//196 197//197 209//209 208//208
f 200//200 201//201 213//213 212//212
f 197//197 198//198 210//210 209//209
f 191//191 192//192 204//204 203//203
f 198//198 199//199 211//211 210//210
f 195//195 196//196 208//208 207//207
f 212//212 213//213 225//225 224//224
f 209//209 210//210 222//222 221//221
f 203//203 204//204 216//216 215//215
f 210//210 211//211 223//223 222//222
f 207//207 208//208 220//220 219//219
f 211//211 212//212 224//224 223//223
f 208//208 209//209 221//221 220//220
f 215//215 216//216 228//228 227//227
f 222//222 223//223 235//235 234//234
f 219//219 220//220 232//232 231//231
f 223//223 224//224 236//236 235//235
f 220//220 221//221 233//233 232//232
f 224//224 225//225 237//237 236//236
f 221//221 222//222 234//234 233//233
f 234//234 235//235 247//247 246//246
f 231//231 232//232 244//244 243//243
f 235//235 236//236 248//248 247//247
f 232//232 233//233 245//245 244//244
f 236//236 237//237 249//249 248//248
f 233//233 234//234 246//246 245//245
f 227//227 228//228 240//240 239//239
f 247//247 248//248 260//260 259//259
f 244//244 245//245 257//257 256//256
f 248//248 249//249 261//261 260//260
f 245//245 246//246 258//258 257//257
f 239//239 240//240 252//252 251//251
f 246//246 247//247 259//259 258//258
f 243//243 244//244 256//256 255//255
f 260//260 261//261 273//273 272//272
f 257//257 258//258 270//270 269//269
f 251//251 252//252 264//264 263//263
f 258//258 259//259 271//271 270//270
f 255//255 256//256 268//268 267//267
f 259//259 260//260 272//272 271//271
f 256//256 257//257 269//269 268//268
f 269//269 270//270 282//282 281//281
f 263//263 264//264 276//276 275//275
f 270//270 271//271 283//283 282//282
f 267//267 268//268 280//280 279//279
f 271//271 272//272 284//284 283//283
f 268//268 269//269 281//281 280//280
f 272//272 273//273 285//285 284//284
f 275//275 276//276 288//288 287//287
f 282//282 283//283 295//295 294//294
f 279//279 280//280 292//292 291//291
f 283//283 284//284 296//296 295//295
f 280//280 281//281 293//293 292//292
f 284//284 285//285 297//297 296//296
f 281//281 282//282 294//294 293//293
f 295//295 296//296 308//308 307//307
f 292//292 293//293 305//305 304//304
f 296//296 297//297 309//309 308//308
f 293//293 294//294 306//306 305//305
f 287//287 288//288 300//300 299//299
f 294//294 295//295 307//307 306//306
f 291//291 292//292 304//304 303//303
f 304//304 305//305 317//317 316//316
f 308//308 309//309 321//321 320//320
f 305//305 306//306 318//318 317//317
f 299//299 300//300 312//312 311//311
f 306//306 307//307 319//319 318//318
f 303//303 304//304 316//316 315//315
f 307//307 308//308 320//320 319//319
f 317//317 318//318 330//330 329//329
f 311//311 312//312 324//324 323//323
f 318//318 319//319 331//331 330//330
f 315//315 316//316 328//328 327//327
f 319//319 320//320 332//332 331//331
f 316//316 317//317 329//329 328//328
f 320//320 321//321 333//333 332//332
f 323//323 324//324 336//336 335//335
f 330//330 331//331 343//343 342//342
f 327//327 328//328 340//340 339//339
f 331//331 332//332 344//344 343//343
f 328//328 329//329 341//341 340//340
f 332//332 333//333 345//345 344//344
f 329//329 330//330 342//342 341//341
f 339//339 340//340 352//352 351//351
f 343//343 344//344 356//356 355//355
f 340//340 341//341 353//353 352//352
f 344//344 345//345 357//357 356//356
f 341//341 342//342 354//354 353//353
f 335//335 336//336 348//348 347//347
f 342//342 343//343 355//355 354//354
f 352//352 353//353 365//365 364//364
f 356//356 357//357 369//369 368//368
f 353//353 354//354 366//366 365//365
f 347//347 348//348 360//360 359//359
f 354//354 355//355 367//367 366//366
f 351//351 352//352 364//364 363//363
f 355//355 356//356 368//368 367//367
f 368//368 369//369 381//381 380//380
f 365//365 366//366 378//378 377//377
f 359//359 360//360 372//372 371//371
f 366//366 367//367 379//379 378//378
f 363//363 364//364 376//376 375//375
f 367//367 368//368 380//380 379//379
f 364//364 365//365 377//377 376//376
f 371//371 372//372 2//2 1//1
f 378//378 379//379 384//384 7//7
f 375//375 376//376 5//5 383//383
f 379//379 380//380 8//8 384//384
f 376//376 377//377 6//6 5//5
f 380//380 381//381 9//9 8//8
f 377//377 378//378 7//7 6//6
usemtl Mat_Bogolan_Band
f 2//2 3//3 13//13 12//12
f 3//3 4//4 14//14 13//13
f 4//4 383//383 15//15 14//14
f 14//14 15//15 27//27 26//26
f 12//12 13//13 25//25 24//24
f 13//13 14//14 26//26 25//25
f 24//24 25//25 37//37 36//36
f 25//25 26//26 38//38 37//37
f 26//26 27//27 39//39 38//38
f 36//36 37//37 49//49 48//48
f 37//37 38//38 50//50 49//49
f 38//38 39//39 51//51 50//50
f 49//49 50//50 62//62 61//61
f 50//50 51//51 63//63 62//62
f 48//48 49//49 61//61 60//60
f 62//62 63//63 75//75 74//74
f 60//60 61//61 73//73 72//72
f 61//61 62//62 74//74 73//73
f 72//72 73//73 85//85 84//84
f 73//73 74//74 86//86 85//85
f 74//74 75//75 87//87 86//86
f 84//84 85//85 97//97 96//96
f 85//85 86//86 98//98 97//97
f 86//86 87//87 99//99 98//98
f 97//97 98//98 110//110 109//109
f 98//98 99//99 111//111 110//110
f 96//96 97//97 109//109 108//108
f 110//110 111//111 123//123 122//122
f 108//108 109//109 121//121 120//120
f 109//109 110//110 122//122 121//121
f 120//120 121//121 133//133 132//132
f 121//121 122//122 134//134 133//133
f 122//122 123//123 135//135 134//134
f 132//132 133//133 145//145 144//144
f 133//133 134//134 146//146 145//145
f 134//134 135//135 147//147 146//146
f 145//145 146//146 158//158 157//157
f 146//146 147//147 159//159 158//158
f 144//144 145//145 157//157 156//156
f 158//158 159//159 171//171 170//170
f 156//156 157//157 169//169 168//168
f 157//157 158//158 170//170 169//169
f 170//170 171//171 183//183 182//182
f 168//168 169//169 181//181 180//180
f 169//169 170//170 182//182 181//181
f 180//180 181//181 193//193 192//192
f 181//181 182//182 194//194 193//193
f 182//182 183//183 195//195 194//194
f 193//193 194//194 206//206 205//205
f 194//194 195//195 207//207 206//206
f 192//192 193//193 205//205 204//204
f 205//205 206//206 218//218 217//217
f 206//206 207//207 219//219 218//218
f 204//204 205//205 217//217 216//216
f 218//218 219//219 231//231 230//230
f 216//216 217//217 229//229 228//228
f 217//217 218//218 230//230 229//229
f 228//228 229//229 241//241 240//240
f 229//229 230//230 242//242 241//241
f 230//230 231//231 243//243 242//242
f 240//240 241//241 253//253 252//252
f 241//241 242//242 254//254 253//253
f 242//242 243//243 255//255 254//254
f 253//253 254//254 266//266 265//265
f 254//254 255//255 267//267 266//266
f 252//252 253//253 265//265 264//264
f 266//266 267//267 279//279 278//278
f 264//264 265//265 277//277 276//276
f 265//265 266//266 278//278 277//277
f 276//276 277//277 289//289 288//288
f 277//277 278//278 290//290 289//289
f 278//278 279//279 291//291 290//290
f 288//288 289//289 301//301 300//300
f 289//289 290//290 302//302 301//301
f 290//290 291//291 303//303 302//302
f 301//301 302//302 314//314 313//313
f 302//302 303//303 315//315 314//314
f 300//300 301//301 313//313 312//312
f 314//314 315//315 327//327 326//326
f 312//312 313//313 325//325 324//324
f 313//313 314//314 326//326 325//325
f 324//324 325//325 337//337 336//336
f 325//325 326//326 338//338 337//337
f 326//326 327//327 339//339 338//338
f 336//336 337//337 349//349 348//348
f 337//337 338//338 350//350 349//349
f 338//338 339//339 351//351 350//350
f 349//349 350//350 362//362 361//361
f 350//350 351//351 363//363 362//362
f 348//348 349//349 361//361 360//360
f 362//362 363//363 375//375 374//374
f 360//360 361//361 373//373 372//372
f 361//361 362//362 374//374 373//373
f 374//374 375//375 383//383 4//4
f 372//372 373//373 3//3 2//2
f 373//373 374//374 4//4 3//3
usemtl Mat_Drum_Skin
f 9//9 10//10 22//22 21//21
f 21//21 22//22 34//34 33//33
f 33//33 34//34 46//46 45//45
f 45//45 46//46 58//58 57//57
f 57//57 58//58 70//70 69//69
f 69//69 70//70 82//82 81//81
f 81//81 82//82 94//94 93//93
f 93//93 94//94 106//106 105//105
f 105//105 106//106 118//118 117//117
f 117//117 118//118 130//130 129//129
f 129//129 130//130 142//142 141//141
f 141//141 142//142 154//154 153//153
f 153//153 154//154 166//166 165//165
f 165//165 166//166 178//178 177//177
f 177//177 178//178 190//190 189//189
f 189//189 190//190 202//202 201//201
f 201//201 202//202 214//214 213//213
f 213//213 214//214 226//226 225//225
f 225//225 226//226 238//238 237//237
f 237//237 238//238 250//250 249//249
f 249//249 250//250 262//262 261//261
f 261//261 262//262 274//274 273//273
f 273//273 274//274 286//286 285//285
f 285//285 286//286 298//298 297//297
f 297//297 298//298 310//310 309//309
f 309//309 310//310 322//322 321//321
f 321//321 322//322 334//334 333//333
f 333//333 334//334 346//346 345//345
f 345//345 346//346 358//358 357//357
f 357//357 358//358 370//370 369//369
f 369//369 370//370 382//382 381//381
f 381//381 382//382 10//10 9//9
f 10//10 382//382 370//370 358//358 346//346 334//334 322//322 310//310 298//298 286//286 274//274 262//262 250//250 238//238 226//226 214//214 202//202 190//190 178//178 166//166 154//154 142//142 130//130 118//118 106//106 94//94 82//82 70//70 58//58 46//46 34//34 22//22
o Decor_Panel
v -0.250000 0.050000 0.020000
v -0.250000 0.950000 0.020000
v -0.250000 0.050000 -0.020000
v -0.250000 0.950000 -0.020000
v 0.250000 0.050000 0.020000
v 0.250000 0.950000 0.020000
v 0.250000 0.050000 -0.020000
v 0.250000 0.950000 -0.020000
vn -1.0000 -0.0000 -0.0000
vn -0.0000 -0.0000 -1.0000
vn 1.0000 -0.0000 -0.0000
vn -0.0000 -0.0000 1.0000
vn -0.0000 -1.0000 -0.0000
vn -0.0000 1.0000 -0.0000
vt 0.375000 0.000000
vt 0.625000 0.000000
vt 0.625000 0.250000
vt 0.375000 0.250000
vt 0.625000 0.500000
vt 0.375000 0.500000
vt 0.625000 0.750000
vt 0.375000 0.750000
vt 0.625000 1.000000
vt 0.375000 1.000000
vt 0.125000 0.500000
vt 0.125000 0.750000
vt 0.875000 0.500000
vt 0.875000 0.750000
s 0
usemtl Mat_Adinkra_Panel
f 385/1/385 386/2/385 388/3/385 387/4/385
f 387/4/386 388/3/386 392/5/386 391/6/386
f 391/6/387 392/5/387 390/7/387 389/8/387
f 389/8/388 390/7/388 386/9/388 385/10/388
f 387/11/389 391/6/389 389/8/389 385/12/389
f 392/5/390 388/13/390 386/14/390 390/7/390
