# Blender 4.3.2
# www.blender.org
mtllib bowling_pin.mtl
o Bowling_Pin
v 0.062000 0.000000 0.000000
v 0.062000 0.010000 0.000000
v 0.058000 0.030000 0.000000
v 0.050000 0.060000 0.000000
v 0.043000 0.090000 0.000000
v 0.052000 0.180000 0.000000
v 0.060000 0.205000 0.000000
v 0.059000 0.230000 0.000000
v 0.040000 0.290000 0.000000
v 0.022000 0.330000 0.000000
v 0.017000 0.350000 0.000000
v 0.014000 0.365000 0.000000
v 0.060809 0.000000 -0.012096
v 0.060809 0.010000 -0.012096
v 0.056886 0.030000 -0.011315
v 0.049039 0.060000 -0.009755
v 0.042174 0.090000 -0.008389
v 0.039231 0.120000 -0.007804
v 0.042174 0.150000 -0.008389
v 0.051001 0.180000 -0.010145
v 0.058847 0.205000 -0.011705
v 0.057866 0.230000 -0.011510
v 0.051001 0.260000 -0.010145
v 0.039231 0.290000 -0.007804
v 0.029424 0.310000 -0.005853
v 0.021577 0.330000 -0.004292
v 0.016673 0.350000 -0.003317
v 0.013731 0.365000 -0.002731
v 0.057281 0.000000 -0.023726
v 0.057281 0.010000 -0.023726
v 0.053585 0.030000 -0.022196
v 0.046194 0.060000 -0.019134
v 0.039727 0.090000 -0.016455
v 0.036955 0.120000 -0.015307
v 0.039727 0.150000 -0.016455
v 0.048042 0.180000 -0.019900
v 0.055433 0.205000 -0.022961
v 0.054509 0.230000 -0.022578
v 0.048042 0.260000 -0.019900
v 0.036955 0.290000 -0.015307
v 0.027716 0.310000 -0.011481
v 0.020325 0.330000 -0.008419
v 0.015706 0.350000 -0.006506
v 0.012934 0.365000 -0.005358
v 0.051551 0.000000 -0.034445
v 0.051551 0.010000 -0.034445
v 0.048225 0.030000 -0.032223
v 0.041573 0.060000 -0.027779
v 0.035753 0.090000 -0.023890
v 0.033259 0.120000 -0.022223
v 0.035753 0.150000 -0.023890
v 0.043236 0.180000 -0.028890
v 0.049888 0.205000 -0.033334
v 0.049057 0.230000 -0.032779
v 0.043236 0.260000 -0.028890
v 0.033259 0.290000 -0.022223
v 0.024944 0.310000 -0.016667
v 0.018292 0.330000 -0.012223
v 0.014135 0.350000 -0.009445
v 0.011641 0.365000 -0.007778
v 0.043841 0.000000 -0.043841
v 0.043841 0.010000 -0.043841
v 0.041012 0.030000 -0.041012
v 0.035355 0.060000 -0.035355
v 0.030406 0.090000 -0.030406
v 0.028284 0.120000 -0.028284
v 0.030406 0.150000 -0.030406
v 0.036770 0.180000 -0.036770
v 0.042426 0.205000 -0.042426
v 0.041719 0.230000 -0.041719
v 0.036770 0.260000 -0.036770
v 0.028284 0.290000 -0.028284
v 0.021213 0.310000 -0.021213
v 0.015556 0.330000 -0.015556
v 0.012021 0.350000 -0.012021
v 0.009899 0.365000 -0.009899
v 0.034445 0.000000 -0.051551
v 0.034445 0.010000 -0.051551
v 0.032223 0.030000 -0.048225
v 0.027779 0.060000 -0.041573
v 0.023890 0.090000 -0.035753
v 0.022223 0.120000 -0.033259
v 0.023890 0.150000 -0.035753
v 0.028890 0.180000 -0.043236
v 0.033334 0.205000 -0.049888
v 0.032779 0.230000 -0.049057
v 0.028890 0.260000 -0.043236
v 0.022223 0.290000 -0.033259
v 0.016667 0.310000 -0.024944
v 0.012223 0.330000 -0.018292
v 0.009445 0.350000 -0.014135
v 0.007778 0.365000 -0.011641
v 0.000000 0.381000 0.000000
v 0.023726 0.000000 -0.057281
v 0.023726 0.010000 -0.057281
v 0.022196 0.030000 -0.053585
v 0.019134 0.060000 -0.046194
v 0.016455 0.090000 -0.039727
v 0.015307 0.120000 -0.036955
v 0.016455 0.150000 -0.039727
v 0.019900 0.180000 -0.048042
v 0.022961 0.205000 -0.055433
v 0.022578 0.230000 -0.054509
v 0.019900 0.260000 -0.048042
v 0.015307 0.290000 -0.036955
v 0.011480 0.310000 -0.027716
v 0.008419 0.330000 -0.020325
v 0.006506 0.350000 -0.015706
v 0.005358 0.365000 -0.012934
v 0.012096 0.000000 -0.060809
v 0.012096 0.010000 -0.060809
v 0.011315 0.030000 -0.056886
v 0.009755 0.060000 -0.049039
v 0.008389 0.090000 -0.042174
v 0.007804 0.120000 -0.039231
v 0.008389 0.150000 -0.042174
v 0.010145 0.180000 -0.051001
v 0.011705 0.205000 -0.058847
v 0.011510 0.230000 -0.057866
v 0.010145 0.260000 -0.051001
v 0.007804 0.290000 -0.039231
v 0.005853 0.310000 -0.029424
v 0.004292 0.330000 -0.021577
v 0.003317 0.350000 -0.016673
v 0.002731 0.365000 -0.013731
v 0.000000 0.000000 -0.062000
v 0.000000 0.010000 -0.062000
v -0.000000 0.030000 -0.058000
v -0.000000 0.060000 -0.050000
v -0.000000 0.090000 -0.043000
v -0.000000 0.120000 -0.040000
v -0.000000 0.150000 -0.043000
v -0.000000 0.180000 -0.052000
v -0.000000 0.205000 -0.060000
v -0.000000 0.230000 -0.059000
v -0.000000 0.260000 -0.052000
v -0.000000 0.290000 -0.040000
v -0.000000 0.310000 -0.030000
v -0.000000 0.330000 -0.022000
v -0.000000 0.350000 -0.017000
v -0.000000 0.365000 -0.014000
v -0.012096 0.000000 -0.060809
v -0.012096 0.010000 -0.060809
v -0.011315 0.030000 -0.056886
v -0.009755 0.060000 -0.049039
v -0.008389 0.090000 -0.042174
v -0.007804 0.120000 -0.039231
v -0.008389 0.150000 -0.042174
v -0.010145 0.180000 -0.051001
v -0.011705 0.205000 -0.058847
v -0.011510 0.230000 -0.057866
v -0.010145 0.260000 -0.051001
v -0.007804 0.290000 -0.039231
v -0.005853 0.310000 -0.029424
v -0.004292 0.330000 -0.021577
v -0.003317 0.350000 -0.016673
v -0.002731 0.365000 -0.013731
v -0.023726 0.000000 -0.057281
v -0.023726 0.010000 -0.057281
v -0.022196 0.030000 -0.053585
v -0.019134 0.060000 -0.046194
v -0.016455 0.090000 -0.039727
v -0.015307 0.120000 -0.036955
v -0.016455 0.150000 -0.039727
v -0.019900 0.180000 -0.048042
v -0.022961 0.205000 -0.055433
v -0.022578 0.230000 -0.054509
v -0.019900 0.260000 -0.048042
v -0.015307 0.290000 -0.036955
v -0.011481 0.310000 -0.027716
v -0.008419 0.330000 -0.020325
v -0.006506 0.350000 -0.015706
v -0.005358 0.365000 -0.012934
v -0.034445 0.000000 -0.051551
v -0.034445 0.010000 -0.051551
v -0.032223 0.030000 -0.048225
v -0.027779 0.060000 -0.041573
v -0.023890 0.090000 -0.035753
v -0.022223 0.120000 -0.033259
v -0.023890 0.150000 -0.035753
v -0.028890 0.180000 -0.043236
v -0.033334 0.205000 -0.049888
v -0.032779 0.230000 -0.049057
v -0.028890 0.260000 -0.043236
v -0.022223 0.290000 -0.033259
v -0.016667 0.310000 -0.024944
v -0.012223 0.330000 -0.018292
v -0.009445 0.350000 -0.014135
v -0.007778 0.365000 -0.011641
v -0.043841 0.000000 -0.043841
v -0.043841 0.010000 -0.043841
v -0.041012 0.030000 -0.041012
v -0.035355 0.060000 -0.035355
v -0.030406 0.090000 -0.030406
v -0.028284 0.120000 -0.028284
v -0.030406 0.150000 -0.030406
v -0.036770 0.180000 -0.036770
v -0.042426 0.205000 -0.042426
v -0.041719 0.230000 -0.041719
v -0.036770 0.260000 -0.036770
v -0.028284 0.290000 -0.028284
v -0.021213 0.310000 -0.021213
v -0.015556 0.330000 -0.015556
v -0.012021 0.350000 -0.012021
v -0.009899 0.365000 -0.009899
v -0.051551 0.000000 -0.034445
v -0.051551 0.010000 -0.034445
v -0.048225 0.030000 -0.032223
v -0.041573 0.060000 -0.027778
v -0.035753 0.090000 -0.023890
v -0.033259 0.120000 -0.022223
v -0.035753 0.150000 -0.023890
v -0.043236 0.180000 -0.028890
v -0.049888 0.205000 -0.033334
v -0.049057 0.230000 -0.032779
v -0.043236 0.260000 -0.028890
v -0.033259 0.290000 -0.022223
v -0.024944 0.310000 -0.016667
v -0.018292 0.330000 -0.012223
v -0.014135 0.350000 -0.009445
v -0.011641 0.365000 -0.007778
v -0.057281 0.000000 -0.023726
v -0.057281 0.010000 -0.023726
v -0.053585 0.030000 -0.022196
v -0.046194 0.060000 -0.019134
v -0.039727 0.090000 -0.016455
v -0.036955 0.120000 -0.015307
v -0.039727 0.150000 -0.016455
v -0.048042 0.180000 -0.019900
v -0.055433 0.205000 -0.022961
v -0.054509 0.230000 -0.022578
v -0.048042 0.260000 -0.019900
v -0.036955 0.290000 -0.015307
v -0.027716 0.310000 -0.011480
v -0.020325 0.330000 -0.008419
v -0.015706 0.350000 -0.006506
v -0.012934 0.365000 -0.005358
v -0.060809 0.000000 -0.012096
v -0.060809 0.010000 -0.012096
v -0.056886 0.030000 -0.011315
v -0.049039 0.060000 -0.009755
v -0.042174 0.090000 -0.008389
v -0.039231 0.120000 -0.007804
v -0.042174 0.150000 -0.008389
v -0.051001 0.180000 -0.010145
v -0.058847 0.205000 -0.011705
v -0.057866 0.230000 -0.011510
v -0.051001 0.260000 -0.010145
v -0.039231 0.290000 -0.007804
v -0.029424 0.310000 -0.005853
v -0.021577 0.330000 -0.004292
v -0.016673 0.350000 -0.003317
v -0.013731 0.365000 -0.002731
v -0.062000 0.000000 -0.000000
v -0.062000 0.010000 -0.000000
v -0.058000 0.030000 0.000000
v -0.050000 0.060000 0.000000
v -0.043000 0.090000 0.000000
v -0.040000 0.120000 0.000000
v -0.043000 0.150000 0.000000
v -0.052000 0.180000 0.000000
v -0.060000 0.205000 0.000000
v -0.059000 0.230000 0.000000
v -0.052000 0.260000 0.000000
v -0.040000 0.290000 0.000000
v -0.030000 0.310000 0.000000
v -0.022000 0.330000 0.000000
v -0.017000 0.350000 0.000000
v -0.014000 0.365000 0.000000
v -0.060809 0.000000 0.012096
v -0.060809 0.010000 0.012096
v -0.056886 0.030000 0.011315
v -0.049039 0.060000 0.009755
v -0.042174 0.090000 0.008389
v -0.039231 0.120000 0.007804
v -0.042174 0.150000 0.008389
v -0.051001 0.180000 0.010145
v -0.058847 0.205000 0.011705
v -0.057866 0.230000 0.011510
v -0.051001 0.260000 0.010145
v -0.039231 0.290000 0.007804
v -0.029424 0.310000 0.005853
v -0.021577 0.330000 0.004292
v -0.016673 0.350000 0.003317
v -0.013731 0.365000 0.002731
v -0.057281 0.000000 0.023726
v -0.057281 0.010000 0.023726
v -0.053585 0.030000 0.022196
v -0.046194 0.060000 0.019134
v -0.039727 0.090000 0.016455
v -0.036955 0.120000 0.015307
v -0.039727 0.150000 0.016455
v -0.048042 0.180000 0.019900
v -0.055433 0.205000 0.022961
v -0.054509 0.230000 0.022578
v -0.048042 0.260000 0.019900
v -0.036955 0.290000 0.015307
v -0.027716 0.310000 0.011480
v -0.020325 0.330000 0.008419
v -0.015706 0.350000 0.006506
v -0.012934 0.365000 0.005358
v -0.051551 0.000000 0.034445
v -0.051551 0.010000 0.034445
v -0.048225 0.030000 0.032223
v -0.041573 0.060000 0.027778
v -0.035753 0.090000 0.023890
v -0.033259 0.120000 0.022223
v -0.035753 0.150000 0.023890
v -0.043236 0.180000 0.028890
v -0.049888 0.205000 0.033334
v -0.049057 0.230000 0.032779
v -0.043236 0.260000 0.028890
v -0.033259 0.290000 0.022223
v -0.024944 0.310000 0.016667
v -0.018292 0.330000 0.012223
v -0.014135 0.350000 0.009445
v -0.011641 0.365000 0.007778
v -0.043841 0.000000 0.043841
v -0.043841 0.010000 0.043841
v -0.041012 0.030000 0.041012
v -0.035355 0.060000 0.035355
v -0.030406 0.090000 0.030406
v -0.028284 0.120000 0.028284
v -0.030406 0.150000 0.030406
v -0.036770 0.180000 0.036770
v -0.042426 0.205000 0.042426
v -0.041719 0.230000 0.041719
v -0.036770 0.260000 0.036770
v -0.028284 0.290000 0.028284
v -0.021213 0.310000 0.021213
v -0.015556 0.330000 0.015556
v -0.012021 0.350000 0.012021
v -0.009899 0.365000 0.009899
v -0.034445 0.000000 0.051551
v -0.034445 0.010000 0.051551
v -0.032223 0.030000 0.048225
v -0.027778 0.060000 0.041573
v -0.023889 0.090000 0.035753
v -0.022223 0.120000 0.033259
v -0.023889 0.150000 0.035753
v -0.028890 0.180000 0.043236
v -0.033334 0.205000 0.049888
v -0.032779 0.230000 0.049057
v -0.028890 0.260000 0.043236
v -0.022223 0.290000 0.033259
v -0.016667 0.310000 0.024944
v -0.012223 0.330000 0.018292
v -0.009445 0.350000 0.014135
v -0.007778 0.365000 0.011641
v -0.023726 0.000000 0.057281
v -0.023726 0.010000 0.057281
v -0.022196 0.030000 0.053585
v -0.019134 0.060000 0.046194
v -0.016455 0.090000 0.039727
v -0.015307 0.120000 0.036955
v -0.016455 0.150000 0.039727
v -0.019900 0.180000 0.048042
v -0.022961 0.205000 0.055433
v -0.022578 0.230000 0.054509
v -0.019900 0.260000 0.048042
v -0.015307 0.290000 0.036955
v -0.011480 0.310000 0.027716
v -0.008419 0.330000 0.020325
v -0.006506 0.350000 0.015706
v -0.005358 0.365000 0.012934
v -0.012096 0.000000 0.060809
v -0.012096 0.010000 0.060809
v -0.011315 0.030000 0.056886
v -0.009755 0.060000 0.049039
v -0.008389 0.090000 0.042174
v -0.007804 0.120000 0.039231
v -0.008389 0.150000 0.042174
v -0.010145 0.180000 0.051001
v -0.011705 0.205000 0.058847
v -0.011510 0.230000 0.057866
v -0.010145 0.260000 0.051001
v -0.007804 0.290000 0.039231
v -0.005853 0.310000 0.029424
v -0.004292 0.330000 0.021577
v -0.003317 0.350000 0.016673
v -0.002731 0.365000 0.013731
v 0.000000 0.000000 0.062000
v 0.000000 0.010000 0.062000
v 0.000000 0.030000 0.058000
v 0.000000 0.060000 0.050000
v 0.000000 0.090000 0.043000
v 0.000000 0.120000 0.040000
v 0.000000 0.150000 0.043000
v 0.000000 0.180000 0.052000
v 0.000000 0.205000 0.060000
v 0.000000 0.230000 0.059000
v 0.000000 0.260000 0.052000
v 0.000000 0.290000 0.040000
v 0.000000 0.310000 0.030000
v 0.000000 0.330000 0.022000
v 0.000000 0.350000 0.017000
v 0.000000 0.365000 0.014000
v 0.012096 0.000000 0.060809
v 0.012096 0.010000 0.060809
v 0.011315 0.030000 0.056885
v 0.009755 0.060000 0.049039
v 0.008389 0.090000 0.042174
v 0.007804 0.120000 0.039231
v 0.008389 0.150000 0.042174
v 0.010145 0.180000 0.051001
v 0.011705 0.205000 0.058847
v 0.011510 0.230000 0.057866
v 0.010145 0.260000 0.051001
v 0.007804 0.290000 0.039231
v 0.005853 0.310000 0.029424
v 0.004292 0.330000 0.021577
v 0.003317 0.350000 0.016673
v 0.002731 0.365000 0.013731
v 0.023726 0.000000 0.057281
v 0.023726 0.010000 0.057281
v 0.022196 0.030000 0.053585
v 0.019134 0.060000 0.046194
v 0.016455 0.090000 0.039727
v 0.015307 0.120000 0.036955
v 0.016455 0.150000 0.039727
v 0.019900 0.180000 0.048042
v 0.022961 0.205000 0.055433
v 0.022578 0.230000 0.054509
v 0.019900 0.260000 0.048042
v 0.015307 0.290000 0.036955
v 0.011480 0.310000 0.027716
v 0.008419 0.330000 0.020325
v 0.006506 0.350000 0.015706
v 0.005358 0.365000 0.012934
v 0.034445 0.000000 0.051551
v 0.034445 0.010000 0.051551
v 0.032223 0.030000 0.048225
v 0.027778 0.060000 0.041573
v 0.023890 0.090000 0.035753
v 0.022223 0.120000 0.033259
v 0.023890 0.150000 0.035753
v 0.028890 0.180000 0.043236
v 0.033334 0.205000 0.049888
v 0.032779 0.230000 0.049057
v 0.028890 0.260000 0.043236
v 0.022223 0.290000 0.033259
v 0.016667 0.310000 0.024944
v 0.012223 0.330000 0.018292
v 0.009445 0.350000 0.014135
v 0.007778 0.365000 0.011641
v 0.043841 0.000000 0.043841
v 0.043841 0.010000 0.043841
v 0.041012 0.030000 0.041012
v 0.035355 0.060000 0.035355
v 0.030406 0.090000 0.030406
v 0.028284 0.120000 0.028284
v 0.030406 0.150000 0.030406
v 0.036770 0.180000 0.036770
v 0.042426 0.205000 0.042426
v 0.041719 0.230000 0.041719
v 0.036770 0.260000 0.036770
v 0.028284 0.290000 0.028284
v 0.021213 0.310000 0.021213
v 0.015556 0.330000 0.015556
v 0.012021 0.350000 0.012021
v 0.009899 0.365000 0.009899
v 0.051551 0.000000 0.034445
v 0.051551 0.010000 0.034445
v 0.048225 0.030000 0.032223
v 0.041573 0.060000 0.027778
v 0.035753 0.090000 0.023889
v 0.033259 0.120000 0.022223
v 0.035753 0.150000 0.023889
v 0.043236 0.180000 0.028890
v 0.049888 0.205000 0.033334
v 0.049057 0.230000 0.032779
v 0.043236 0.260000 0.028890
v 0.033259 0.290000 0.022223
v 0.024944 0.310000 0.016667
v 0.018292 0.330000 0.012223
v 0.014135 0.350000 0.009445
v 0.011641 0.365000 0.007778
v 0.057281 0.000000 0.023726
v 0.057281 0.010000 0.023726
v 0.053585 0.030000 0.022196
v 0.046194 0.060000 0.019134
v 0.039727 0.090000 0.016455
v 0.036955 0.120000 0.015307
v 0.039727 0.150000 0.016455
v 0.048042 0.180000 0.019900
v 0.055433 0.205000 0.022961
v 0.054509 0.230000 0.022578
v 0.048042 0.260000 0.019900
v 0.036955 0.290000 0.015307
v 0.027716 0.310000 0.011480
v 0.020325 0.330000 0.008419
v 0.015706 0.350000 0.006506
v 0.012934 0.365000 0.005358
v 0.060809 0.000000 0.012096
v 0.060809 0.010000 0.012096
v 0.056885 0.030000 0.011315
v 0.049039 0.060000 0.009754
v 0.042174 0.090000 0.008389
v 0.039231 0.120000 0.007804
v 0.042174 0.150000 0.008389
v 0.051001 0.180000 0.010145
v 0.058847 0.205000 0.011705
v 0.057866 0.230000 0.011510
v 0.051001 0.260000 0.010145
v 0.039231 0.290000 0.007804
v 0.029424 0.310000 0.005853
v 0.021577 0.330000 0.004292
v 0.016673 0.350000 0.003317
v 0.013731 0.365000 0.002731
v 0.040000 0.120000 -0.000000
v 0.043000 0.150000 -0.000000
v 0.052000 0.260000 -0.000000
v 0.030000 0.310000 -0.000000
vn -0.7279 0.6857 -0.0000
vn -0.9952 -0.0979 -0.0000
vn -0.9740 -0.2266 -0.0000
vn -0.9701 -0.2427 -0.0000
vn -0.9864 -0.1644 -0.0000
vn -0.9551 0.2962 -0.0000
vn -0.9911 0.1330 -0.0000
vn -0.9911 -0.1334 -0.0000
vn -0.9127 -0.4087 -0.0000
vn -0.9511 -0.3089 -0.0000
vn -0.9756 -0.2197 -0.0000
vn -0.8999 -0.4360 -0.0000
vn -0.7139 0.6857 0.1420
vn -0.9761 -0.0979 0.1942
vn -0.9553 -0.2266 0.1900
vn -0.9515 -0.2427 0.1893
vn -0.9674 -0.1644 0.1924
vn -0.9808 -0.0000 0.1951
vn -0.9619 0.1955 0.1913
vn -0.9368 0.2962 0.1863
vn -0.9721 0.1330 0.1934
vn -0.9720 -0.1334 0.1933
vn -0.9360 -0.2988 0.1862
vn -0.8951 -0.4087 0.1781
vn -0.8943 -0.4106 0.1779
vn -0.9328 -0.3089 0.1855
vn -0.9568 -0.2197 0.1903
vn -0.8827 -0.4360 0.1756
vn -0.6725 0.6857 0.2785
vn -0.9194 -0.0979 0.3808
vn -0.8999 -0.2266 0.3727
vn -0.8963 -0.2427 0.3712
vn -0.9113 -0.1644 0.3775
vn -0.9239 -0.0000 0.3827
vn -0.9061 0.1955 0.3753
vn -0.8824 0.2962 0.3655
vn -0.9157 0.1330 0.3793
vn -0.9156 -0.1334 0.3793
vn -0.8817 -0.2988 0.3652
vn -0.8432 -0.4087 0.3493
vn -0.8424 -0.4106 0.3489
vn -0.8787 -0.3089 0.3640
vn -0.9013 -0.2197 0.3733
vn -0.8314 -0.4360 0.3444
vn -0.6052 0.6857 0.4044
vn -0.8275 -0.0979 0.5529
vn -0.8098 -0.2266 0.5411
vn -0.8066 -0.2427 0.5390
vn -0.8202 -0.1644 0.5480
vn -0.8315 -0.0000 0.5556
vn -0.8154 0.1955 0.5449
vn -0.7941 0.2962 0.5306
vn -0.8241 0.1330 0.5506
vn -0.8240 -0.1334 0.5506
vn -0.7935 -0.2988 0.5302
vn -0.7589 -0.4087 0.5071
vn -0.7581 -0.4106 0.5066
vn -0.7908 -0.3089 0.5284
vn -0.8112 -0.2197 0.5420
vn -0.7483 -0.4360 0.5000
vn -0.5147 0.6857 0.5147
vn -0.7037 -0.0979 0.7037
vn -0.6887 -0.2266 0.6887
vn -0.6860 -0.2427 0.6860
vn -0.6975 -0.1644 0.6975
vn -0.7071 -0.0000 0.7071
vn -0.6935 0.1955 0.6935
vn -0.6754 0.2962 0.6754
vn -0.7008 0.1330 0.7008
vn -0.7008 -0.1334 0.7008
vn -0.6748 -0.2988 0.6748
vn -0.6454 -0.4087 0.6454
vn -0.6447 -0.4106 0.6447
vn -0.6725 -0.3089 0.6725
vn -0.6898 -0.2197 0.6898
vn -0.6364 -0.4360 0.6364
vn -0.4044 0.6857 0.6052
vn -0.5529 -0.0979 0.8275
vn -0.5411 -0.2266 0.8098
vn -0.5390 -0.2427 0.8066
vn -0.5480 -0.1644 0.8202
vn -0.5556 -0.0000 0.8315
vn -0.5449 0.1955 0.8154
vn -0.5306 0.2962 0.7941
vn -0.5506 0.1330 0.8241
vn -0.5506 -0.1334 0.8240
vn -0.5302 -0.2988 0.7935
vn -0.5071 -0.4087 0.7589
vn -0.5066 -0.4106 0.7581
vn -0.5284 -0.3089 0.7908
vn -0.5420 -0.2197 0.8112
vn -0.5000 -0.4360 0.7483
vn -0.0000 -1.0000 -0.0000
vn -0.2785 0.6857 0.6725
vn -0.3808 -0.0979 0.9194
vn -0.3727 -0.2266 0.8999
vn -0.3712 -0.2427 0.8963
vn -0.3775 -0.1644 0.9113
vn -0.3827 -0.0000 0.9239
vn -0.3753 0.1955 0.9061
vn -0.3655 0.2962 0.8824
vn -0.3793 0.1330 0.9157
vn -0.3793 -0.1334 0.9156
vn -0.3652 -0.2988 0.8817
vn -0.3493 -0.4087 0.8432
vn -0.3489 -0.4106 0.8424
vn -0.3640 -0.3089 0.8787
vn -0.3733 -0.2197 0.9013
vn -0.3444 -0.4360 0.8314
vn -0.1420 0.6857 0.7139
vn -0.1942 -0.0979 0.9761
vn -0.1900 -0.2266 0.9553
vn -0.1893 -0.2427 0.9515
vn -0.1924 -0.1644 0.9674
vn -0.1951 -0.0000 0.9808
vn -0.1913 0.1955 0.9619
vn -0.1863 0.2962 0.9368
vn -0.1934 0.1330 0.9721
vn -0.1933 -0.1334 0.9720
vn -0.1862 -0.2988 0.9360
vn -0.1781 -0.4087 0.8951
vn -0.1779 -0.4106 0.8943
vn -0.1855 -0.3089 0.9328
vn -0.1903 -0.2197 0.9568
vn -0.1756 -0.4360 0.8827
vn -0.0000 0.6857 0.7279
vn -0.0000 -0.0979 0.9952
vn -0.0000 -0.2266 0.9740
vn -0.0000 -0.2427 0.9701
vn -0.0000 -0.1644 0.9864
vn -0.0000 -0.0000 1.0000
vn -0.0000 0.1955 0.9807
vn -0.0000 0.2962 0.9551
vn -0.0000 0.1330 0.9911
vn -0.0000 -0.1334 0.9911
vn -0.0000 -0.2988 0.9543
vn -0.0000 -0.4087 0.9127
vn -0.0000 -0.4106 0.9118
vn -0.0000 -0.3089 0.9511
vn -0.0000 -0.2197 0.9756
vn -0.0000 -0.4360 0.8999
vn 0.1420 0.6857 0.7139
vn 0.1942 -0.0979 0.9761
vn 0.1900 -0.2266 0.9553
vn 0.1893 -0.2427 0.9515
vn 0.1924 -0.1644 0.9674
vn 0.1951 -0.0000 0.9808
vn 0.1913 0.1955 0.9619
vn 0.1863 0.2962 0.9368
vn 0.1934 0.1330 0.9721
vn 0.1933 -0.1334 0.9720
vn 0.1862 -0.2988 0.9360
vn 0.1781 -0.4087 0.8951
vn 0.1779 -0.4106 0.8943
vn 0.1855 -0.3089 0.9328
vn 0.1903 -0.2197 0.9568
vn 0.1756 -0.4360 0.8827
vn 0.2785 0.6857 0.6725
vn 0.3808 -0.0979 0.9194
vn 0.3727 -0.2266 0.8999
vn 0.3712 -0.2427 0.8963
vn 0.3775 -0.1644 0.9113
vn 0.3827 -0.0000 0.9239
vn 0.3753 0.1955 0.9061
vn 0.3655 0.2962 0.8824
vn 0.3793 0.1330 0.9157
vn 0.3793 -0.1334 0.9156
vn 0.3652 -0.2988 0.8817
vn 0.3493 -0.4087 0.8432
vn 0.3489 -0.4106 0.8424
vn 0.3640 -0.3089 0.8787
vn 0.3733 -0.2197 0.9013
vn 0.3444 -0.4360 0.8314
vn 0.4044 0.6857 0.6052
vn 0.5529 -0.0979 0.8275
vn 0.5411 -0.2266 0.8098
vn 0.5390 -0.2427 0.8066
vn 0.5480 -0.1644 0.8202
vn 0.5556 -0.0000 0.8315
vn 0.5449 0.1955 0.8154
vn 0.5306 0.2962 0.7941
vn 0.5506 0.1330 0.8241
vn 0.5506 -0.1334 0.8240
vn 0.5302 -0.2988 0.7935
vn 0.5071 -0.4087 0.7589
vn 0.5066 -0.4106 0.7581
vn 0.5284 -0.3089 0.7908
vn 0.5420 -0.2197 0.8112
vn 0.5000 -0.4360 0.7483
vn 0.5147 0.6857 0.5147
vn 0.7037 -0.0979 0.7037
vn 0.6887 -0.2266 0.6887
vn 0.6860 -0.2427 0.6860
vn 0.6975 -0.1644 0.6975
vn 0.7071 -0.0000 0.7071
vn 0.6935 0.1955 0.6935
vn 0.6754 0.2962 0.6754
vn 0.7008 0.1330 0.7008
vn 0.7008 -0.1334 0.7008
vn 0.6748 -0.2988 0.6748
vn 0.6454 -0.4087 0.6454
vn 0.6447 -0.4106 0.6447
vn 0.6725 -0.3089 0.6725
vn 0.6898 -0.2197 0.6898
vn 0.6364 -0.4360 0.6364
vn 0.6052 0.6857 0.4044
vn 0.8275 -0.0979 0.5529
vn 0.8098 -0.2266 0.5411
vn 0.8066 -0.2427 0.5390
vn 0.8202 -0.1644 0.5480
vn 0.8315 -0.0000 0.5556
vn 0.8154 0.1955 0.5449
vn 0.7941 0.2962 0.5306
vn 0.8241 0.1330 0.5506
vn 0.8240 -0.1334 0.5506
vn 0.7935 -0.2988 0.5302
vn 0.7589 -0.4087 0.5071
vn 0.7581 -0.4106 0.5066
vn 0.7908 -0.3089 0.5284
vn 0.8112 -0.2197 0.5420
vn 0.7483 -0.4360 0.5000
vn 0.6725 0.6857 0.2785
vn 0.9194 -0.0979 0.3808
vn 0.8999 -0.2266 0.3727
vn 0.8963 -0.2427 0.3712
vn 0.9113 -0.1644 0.3775
vn 0.9239 -0.0000 0.3827
vn 0.9061 0.1955 0.3753
vn 0.8824 0.2962 0.3655
vn 0.9157 0.1330 0.3793
vn 0.9156 -0.1334 0.3793
vn 0.8817 -0.2988 0.3652
vn 0.8432 -0.4087 0.3493
vn 0.8424 -0.4106 0.3489
vn 0.8787 -0.3089 0.3640
vn 0.9013 -0.2197 0.3733
vn 0.8314 -0.4360 0.3444
vn 0.7139 0.6857 0.1420
vn 0.9761 -0.0979 0.1942
vn 0.9553 -0.2266 0.1900
vn 0.9515 -0.2427 0.1893
vn 0.9674 -0.1644 0.1924
vn 0.9808 -0.0000 0.1951
vn 0.9619 0.1955 0.1913
vn 0.9368 0.2962 0.1863
vn 0.9721 0.1330 0.1934
vn 0.9720 -0.1334 0.1933
vn 0.9360 -0.2988 0.1862
vn 0.8951 -0.4087 0.1781
vn 0.8943 -0.4106 0.1779
vn 0.9328 -0.3089 0.1855
vn 0.9568 -0.2197 0.1903
vn 0.8827 -0.4360 0.1756
vn 0.7279 0.6857 -0.0000
vn 0.9952 -0.0979 -0.0000
vn 0.9740 -0.2266 -0.0000
vn 0.9701 -0.2427 -0.0000
vn 0.9864 -0.1644 -0.0000
vn 1.0000 -0.0000 -0.0000
vn 0.9807 0.1955 -0.0000
vn 0.9551 0.2962 -0.0000
vn 0.9911 0.1330 -0.0000
vn 0.9911 -0.1334 -0.0000
vn 0.9543 -0.2988 -0.0000
vn 0.9127 -0.4087 -0.0000
vn 0.9118 -0.4106 -0.0000
vn 0.9511 -0.3089 -0.0000
vn 0.9756 -0.2197 -0.0000
vn 0.8999 -0.4360 -0.0000
vn 0.7139 0.6857 -0.1420
vn 0.9761 -0.0979 -0.1942
vn 0.9553 -0.2266 -0.1900
vn 0.9515 -0.2427 -0.1893
vn 0.9674 -0.1644 -0.1924
vn 0.9808 -0.0000 -0.1951
vn 0.9619 0.1955 -0.1913
vn 0.9368 0.2962 -0.1863
vn 0.9721 0.1330 -0.1934
vn 0.9720 -0.1334 -0.1933
vn 0.9360 -0.2988 -0.1862
vn 0.8951 -0.4087 -0.1781
vn 0.8943 -0.4106 -0.1779
vn 0.9328 -0.3089 -0.1855
vn 0.9568 -0.2197 -0.1903
vn 0.8827 -0.4360 -0.1756
vn 0.6725 0.6857 -0.2785
vn 0.9194 -0.0979 -0.3808
vn 0.8999 -0.2266 -0.3727
vn 0.8963 -0.2427 -0.3712
vn 0.9113 -0.1644 -0.3775
vn 0.9239 -0.0000 -0.3827
vn 0.9061 0.1955 -0.3753
vn 0.8824 0.2962 -0.3655
vn 0.9157 0.1330 -0.3793
vn 0.9156 -0.1334 -0.3793
vn 0.8817 -0.2988 -0.3652
vn 0.8432 -0.4087 -0.3493
vn 0.8424 -0.4106 -0.3489
vn 0.8787 -0.3089 -0.3640
vn 0.9013 -0.2197 -0.3733
vn 0.8314 -0.4360 -0.3444
vn 0.6052 0.6857 -0.4044
vn 0.8275 -0.0979 -0.5529
vn 0.8098 -0.2266 -0.5411
vn 0.8066 -0.2427 -0.5390
vn 0.8202 -0.1644 -0.5480
vn 0.8315 -0.0000 -0.5556
vn 0.8154 0.1955 -0.5449
vn 0.7941 0.2962 -0.5306
vn 0.8241 0.1330 -0.5506
vn 0.8240 -0.1334 -0.5506
vn 0.7935 -0.2988 -0.5302
vn 0.7589 -0.4087 -0.5071
vn 0.7581 -0.4106 -0.5066
vn 0.7908 -0.3089 -0.5284
vn 0.8112 -0.2197 -0.5420
vn 0.7483 -0.4360 -0.5000
vn 0.5147 0.6857 -0.5147
vn 0.7037 -0.0979 -0.7037
vn 0.6887 -0.2266 -0.6887
vn 0.6860 -0.2427 -0.6860
vn 0.6975 -0.1644 -0.6975
vn 0.7071 -0.0000 -0.7071
vn 0.6935 0.1955 -0.6935
vn 0.6754 0.2962 -0.6754
vn 0.7008 0.1330 -0.7008
vn 0.7008 -0.1334 -0.7008
vn 0.6748 -0.2988 -0.6748
vn 0.6454 -0.4087 -0.6454
vn 0.6447 -0.4106 -0.6447
vn 0.6725 -0.3089 -0.6725
vn 0.6898 -0.2197 -0.6898
vn 0.6364 -0.4360 -0.6364
vn 0.4044 0.6857 -0.6052
vn 0.5529 -0.0979 -0.8275
vn 0.5411 -0.2266 -0.8098
vn 0.5390 -0.2427 -0.8066
vn 0.5480 -0.1644 -0.8202
vn 0.5556 -0.0000 -0.8315
vn 0.5449 0.1955 -0.8154
vn 0.5306 0.2962 -0.7941
vn 0.5506 0.1330 -0.8241
vn 0.5506 -0.1334 -0.8240
vn 0.5302 -0.2988 -0.7935
vn 0.5071 -0.4087 -0.7589
vn 0.5066 -0.4106 -0.7581
vn 0.5284 -0.3089 -0.7908
vn 0.5420 -0.2197 -0.8112
vn 0.5000 -0.4360 -0.7483
vn 0.2785 0.6857 -0.6725
vn 0.3808 -0.0979 -0.9194
vn 0.3727 -0.2266 -0.8999
vn 0.3712 -0.2427 -0.8963
vn 0.3775 -0.1644 -0.9113
vn 0.3827 -0.0000 -0.9239
vn 0.3753 0.1955 -0.9061
vn 0.3655 0.2962 -0.8824
vn 0.3793 0.1330 -0.9157
vn 0.3793 -0.1334 -0.9156
vn 0.3652 -0.2988 -0.8817
vn 0.3493 -0.4087 -0.8432
vn 0.3489 -0.4106 -0.8424
vn 0.3640 -0.3089 -0.8787
vn 0.3733 -0.2197 -0.9013
vn 0.3444 -0.4360 -0.8314
vn 0.1420 0.6857 -0.7139
vn 0.1942 -0.0979 -0.9761
vn 0.1900 -0.2266 -0.9553
vn 0.1893 -0.2427 -0.9515
vn 0.1924 -0.1644 -0.9674
vn 0.1951 -0.0000 -0.9808
vn 0.1913 0.1955 -0.9619
vn 0.1863 0.2962 -0.9368
vn 0.1934 0.1330 -0.9721
vn 0.1933 -0.1334 -0.9720
vn 0.1862 -0.2988 -0.9360
vn 0.1781 -0.4087 -0.8951
vn 0.1779 -0.4106 -0.8943
vn 0.1855 -0.3089 -0.9328
vn 0.1903 -0.2197 -0.9568
vn 0.1756 -0.4360 -0.8827
vn -0.0000 0.6857 -0.7279
vn -0.0000 -0.0979 -0.9952
vn -0.0000 -0.2266 -0.9740
vn -0.0000 -0.2427 -0.9701
vn -0.0000 -0.1644 -0.9864
vn -0.0000 -0.0000 -1.0000
vn -0.0000 0.1955 -0.9807
vn -0.0000 0.2962 -0.9551
vn -0.0000 0.1330 -0.9911
vn -0.0000 -0.1334 -0.9911
vn -0.0000 -0.2988 -0.9543
vn -0.0000 -0.4087 -0.9127
vn -0.0000 -0.4106 -0.9118
vn -0.0000 -0.3089 -0.9511
vn -0.0000 -0.2197 -0.9756
vn -0.0000 -0.4360 -0.8999
vn -0.1420 0.6857 -0.7139
vn -0.1942 -0.0979 -0.9761
vn -0.1900 -0.2266 -0.9553
vn -0.1893 -0.2427 -0.9515
vn -0.1924 -0.1644 -0.9674
vn -0.1951 -0.0000 -0.9808
vn -0.1913 0.1955 -0.9619
vn -0.1863 0.2962 -0.9368
vn -0.1934 0.1330 -0.9721
vn -0.1933 -0.1334 -0.9720
vn -0.1862 -0.2988 -0.9360
vn -0.1781 -0.4087 -0.8951
vn -0.1779 -0.4106 -0.8943
vn -0.1855 -0.3089 -0.9328
vn -0.1903 -0.2197 -0.9568
vn -0.1756 -0.4360 -0.8827
vn -0.2785 0.6857 -0.6725
vn -0.3808 -0.0979 -0.9194
vn -0.3727 -0.2266 -0.8999
vn -0.3712 -0.2427 -0.8963
vn -0.3775 -0.1644 -0.9113
vn -0.3827 -0.0000 -0.9239
vn -0.3753 0.1955 -0.9061
vn -0.3655 0.2962 -0.8824
vn -0.3793 0.1330 -0.9157
vn -0.3793 -0.1334 -0.9156
vn -0.3652 -0.2988 -0.8817
vn -0.3493 -0.4087 -0.8432
vn -0.3489 -0.4106 -0.8424
vn -0.3640 -0.3089 -0.8787
vn -0.3733 -0.2197 -0.9013
vn -0.3444 -0.4360 -0.8314
vn -0.4044 0.6857 -0.6052
vn -0.5529 -0.0979 -0.8275
vn -0.5411 -0.2266 -0.8098
vn -0.5390 -0.2427 -0.8066
vn -0.5480 -0.1644 -0.8202
vn -0.5556 -0.0000 -0.8315
vn -0.5449 0.1955 -0.8154
vn -0.5306 0.2962 -0.7941
vn -0.5506 0.1330 -0.8241
vn -0.5506 -0.1334 -0.8240
vn -0.5302 -0.2988 -0.7935
vn -0.5071 -0.4087 -0.7589
vn -0.5066 -0.4106 -0.7581
vn -0.5284 -0.3089 -0.7908
vn -0.5420 -0.2197 -0.8112
vn -0.5000 -0.4360 -0.7483
vn -0.5147 0.6857 -0.5147
vn -0.7037 -0.0979 -0.7037
vn -0.6887 -0.2266 -0.6887
vn -0.6860 -0.2427 -0.6860
vn -0.6975 -0.1644 -0.6975
vn -0.7071 -0.0000 -0.7071
vn -0.6935 0.1955 -0.6935
vn -0.6754 0.2962 -0.6754
vn -0.7008 0.1330 -0.7008
vn -0.7008 -0.1334 -0.7008
vn -0.6748 -0.2988 -0.6748
vn -0.6454 -0.4087 -0.6454
vn -0.6447 -0.4106 -0.6447
vn -0.6725 -0.3089 -0.6725
vn -0.6898 -0.2197 -0.6898
vn -0.6364 -0.4360 -0.6364
vn -0.6052 0.6857 -0.4044
vn -0.8275 -0.0979 -0.5529
vn -0.8098 -0.2266 -0.5411
vn -0.8066 -0.2427 -0.5390
vn -0.8202 -0.1644 -0.5480
vn -0.8315 -0.0000 -0.5556
vn -0.8154 0.1955 -0.5449
vn -0.7941 0.2962 -0.5306
vn -0.8241 0.1330 -0.5506
vn -0.8240 -0.1334 -0.5506
vn -0.7935 -0.2988 -0.5302
vn -0.7589 -0.4087 -0.5071
vn -0.7581 -0.4106 -0.5066
vn -0.7908 -0.3089 -0.5284
vn -0.8112 -0.2197 -0.5420
vn -0.7483 -0.4360 -0.5000
vn -0.6725 0.6857 -0.2785
vn -0.9194 -0.0979 -0.3808
vn -0.8999 -0.2266 -0.3727
vn -0.8963 -0.2427 -0.3712
vn -0.9113 -0.1644 -0.3775
vn -0.9239 -0.0000 -0.3827
vn -0.9061 0.1955 -0.3753
vn -0.8824 0.2962 -0.3655
vn -0.9157 0.1330 -0.3793
vn -0.9156 -0.1334 -0.3793
vn -0.8817 -0.2988 -0.3652
vn -0.8432 -0.4087 -0.3493
vn -0.8424 -0.4106 -0.3489
vn -0.8787 -0.3089 -0.3640
vn -0.9013 -0.2197 -0.3733
vn -0.8314 -0.4360 -0.3444
vn -0.7139 0.6857 -0.1420
vn -0.9761 -0.0979 -0.1942
vn -0.9553 -0.2266 -0.1900
vn -0.9515 -0.2427 -0.1893
vn -0.9674 -0.1644 -0.1924
vn -0.9808 -0.0000 -0.1951
vn -0.9619 0.1955 -0.1913
vn -0.9368 0.2962 -0.1863
vn -0.9721 0.1330 -0.1934
vn -0.9720 -0.1334 -0.1933
vn -0.9360 -0.2988 -0.1862
vn -0.8951 -0.4087 -0.1781
vn -0.8943 -0.4106 -0.1779
vn -0.9328 -0.3089 -0.1856
vn -0.9568 -0.2197 -0.1903
vn -0.8827 -0.4360 -0.1756
vn -1.0000 -0.0000 -0.0000
vn -0.9807 0.1955 -0.0000
vn -0.9543 -0.2988 -0.0000
vn -0.9118 -0.4106 -0.0000
s 1
usemtl Mat_Pin_Body
f 7//7 8//8 22//22 21//21
f 2//2 3//3 15//15 14//14
f 8//8 512//512 23//23 22//22
f 3//3 4//4 16//16 15//15
f 512//512 9//9 24//24 23//23
f 4//4 5//5 17//17 16//16
f 9//9 513//513 25//25 24//24
f 5//5 510//510 18//18 17//17
f 513//513 10//10 26//26 25//25
f 510//510 511//511 19//19 18//18
f 10//10 11//11 27//27 26//26
f 11//11 12//12 28//28 27//27
f 1//1 2//2 14//14 13//13
f 12//12 93//93 28//28
f 13//13 14//14 30//30 29//29
f 28//28 93//93 44//44
f 21//21 22//22 38//38 37//37
f 14//14 15//15 31//31 30//30
f 22//22 23//23 39//39 38//38
f 15//15 16//16 32//32 31//31
f 23//23 24//24 40//40 39//39
f 16//16 17//17 33//33 32//32
f 24//24 25//25 41//41 40//40
f 17//17 18//18 34//34 33//33
f 25//25 26//26 42//42 41//41
f 18//18 19//19 35//35 34//34
f 26//26 27//27 43//43 42//42
f 27//27 28//28 44//44 43//43
f 40//40 41//41 57//57 56//56
f 33//33 34//34 50//50 49//49
f 41//41 42//42 58//58 57//57
f 34//34 35//35 51//51 50//50
f 42//42 43//43 59//59 58//58
f 43//43 44//44 60//60 59//59
f 29//29 30//30 46//46 45//45
f 44//44 93//93 60//60
f 37//37 38//38 54//54 53//53
f 30//30 31//31 47//47 46//46
f 38//38 39//39 55//55 54//54
f 31//31 32//32 48//48 47//47
f 39//39 40//40 56//56 55//55
f 32//32 33//33 49//49 48//48
f 45//45 46//46 62//62 61//61
f 60//60 93//93 76//76
f 53//53 54//54 70//70 69//69
f 46//46 47//47 63//63 62//62
f 54//54 55//55 71//71 70//70
f 47//47 48//48 64//64 63//63
f 55//55 56//56 72//72 71//71
f 48//48 49//49 65//65 64//64
f 56//56 57//57 73//73 72//72
f 49//49 50//50 66//66 65//65
f 57//57 58//58 74//74 73//73
f 50//50 51//51 67//67 66//66
f 58//58 59//59 75//75 74//74
f 59//59 60//60 76//76 75//75
f 65//65 66//66 82//82 81//81
f 73//73 74//74 90//90 89//89
f 66//66 67//67 83//83 82//82
f 74//74 75//75 91//91 90//90
f 75//75 76//76 92//92 91//91
f 61//61 62//62 78//78 77//77
f 76//76 93//93 92//92
f 69//69 70//70 86//86 85//85
f 62//62 63//63 79//79 78//78
f 70//70 71//71 87//87 86//86
f 63//63 64//64 80//80 79//79
f 71//71 72//72 88//88 87//87
f 64//64 65//65 81//81 80//80
f 72//72 73//73 89//89 88//88
f 85//85 86//86 103//103 102//102
f 78//78 79//79 96//96 95//95
f 86//86 87//87 104//104 103//103
f 79//79 80//80 97//97 96//96
f 87//87 88//88 105//105 104//104
f 80//80 81//81 98//98 97//97
f 88//88 89//89 106//106 105//105
f 81//81 82//82 99//99 98//98
f 89//89 90//90 107//107 106//106
f 82//82 83//83 100//100 99//99
f 90//90 91//91 108//108 107//107
f 91//91 92//92 109//109 108//108
f 77//77 78//78 95//95 94//94
f 92//92 93//93 109//109
f 106//106 107//107 123//123 122//122
f 99//99 100//100 116//116 115//115
f 107//107 108//108 124//124 123//123
f 108//108 109//109 125//125 124//124
f 94//94 95//95 111//111 110//110
f 109//109 93//93 125//125
f 102//102 103//103 119//119 118//118
f 95//95 96//96 112//112 111//111
f 103//103 104//104 120//120 119//119
f 96//96 97//97 113//113 112//112
f 104//104 105//105 121//121 120//120
f 97//97 98//98 114//114 113//113
f 105//105 106//106 122//122 121//121
f 98//98 99//99 115//115 114//114
f 119//119 120//120 136//136 135//135
f 112//112 113//113 129//129 128//128
f 120//120 121//121 137//137 136//136
f 113//113 114//114 130//130 129//129
f 121//121 122//122 138//138 137//137
f 114//114 115//115 131//131 130//130
f 122//122 123//123 139//139 138//138
f 115//115 116//116 132//132 131//131
f 123//123 124//124 140//140 139//139
f 124//124 125//125 141//141 140//140
f 110//110 111//111 127//127 126//126
f 125//125 93//93 141//141
f 118//118 119//119 135//135 134//134
f 111//111 112//112 128//128 127//127
f 139//139 140//140 156//156 155//155
f 140//140 141//141 157//157 156//156
f 126//126 127//127 143//143 142//142
f 141//141 93//93 157//157
f 134//134 135//135 151//151 150//150
f 127//127 128//128 144//144 143//143
f 135//135 136//136 152//152 151//151
f 128//128 129//129 145//145 144//144
f 136//136 137//137 153//153 152//152
f 129//129 130//130 146//146 145//145
f 137//137 138//138 154//154 153//153
f 130//130 131//131 147//147 146//146
f 138//138 139//139 155//155 154//154
f 131//131 132//132 148//148 147//147
f 144//144 145//145 161//161 160//160
f 152//152 153//153 169//169 168//168
f 145//145 146//146 162//162 161//161
f 153//153 154//154 170//170 169//169
f 146//146 147//147 163//163 162//162
f 154//154 155//155 171//171 170//170
f 147//147 148//148 164//164 163//163
f 155//155 156//156 172//172 171//171
f 156//156 157//157 173//173 172//172
f 142//142 143//143 159//159 158//158
f 157//157 93//93 173//173
f 150//150 151//151 167//167 166//166
f 143//143 144//144 160//160 159//159
f 151//151 152//152 168//168 167//167
f 172//172 173//173 189//189 188//188
f 158//158 159//159 175//175 174//174
f 173//173 93//93 189//189
f 166//166 167//167 183//183 182//182
f 159//159 160//160 176//176 175//175
f 167//167 168//168 184//184 183//183
f 160//160 161//161 177//177 176//176
f 168//168 169//169 185//185 184//184
f 161//161 162//162 178//178 177//177
f 169//169 170//170 186//186 185//185
f 162//162 163//163 179//179 178//178
f 170//170 171//171 187//187 186//186
f 163//163 164//164 180//180 179//179
f 171//171 172//172 188//188 187//187
f 184//184 185//185 201//201 200//200
f 177//177 178//178 194//194 193//193
f 185//185 186//186 202//202 201//201
f 178//178 179//179 195//195 194//194
f 186//186 187//187 203//203 202//202
f 179//179 180//180 196//196 195//195
f 187//187 188//188 204//204 203//203
f 188//188 189//189 205//205 204//204
f 174//174 175//175 191//191 190//190
f 189//189 93//93 205//205
f 182//182 183//183 199//199 198//198
f 175//175 176//176 192//192 191//191
f 183//183 184//184 200//200 199//199
f 176//176 177//177 193//193 192//192
f 204//204 205//205 221//221 220//220
f 190//190 191//191 207//207 206//206
f 205//205 93//93 221//221
f 198//198 199//199 215//215 214//214
f 191//191 192//192 208//208 207//207
f 199//199 200//200 216//216 215//215
f 192//192 193//193 209//209 208//208
f 200//200 201//201 217//217 216//216
f 193//193 194//194 210//210 209//209
f 201//201 202//202 218//218 217//217
f 194//194 195//195 211//211 210//210
f 202//202 203//203 219//219 218//218
f 195//195 196//196 212//212 211//211
f 203//203 204//204 220//220 219//219
f 209//209 210//210 226//226 225//225
f 217//217 218//218 234//234 233//233
f 210//210 211//211 227//227 226//226
f 218//218 219//219 235//235 234//234
f 211//211 212//212 228//228 227//227
f 219//219 220//220 236//236 235//235
f 220//220 221//221 237//237 236//236
f 206//206 207//207 223//223 222//222
f 221//221 93//93 237//237
f 214//214 215//215 231//231 230//230
f 207//207 208//208 224//224 223//223
f 215//215 216//216 232//232 231//231
f 208//208 209//209 225//225 224//224
f 216//216 217//217 233//233 232//232
f 222//222 223//223 239//239 238//238
f 237//237 93//93 253//253
f 230//230 231//231 247//247 246//246
f 223//223 224//224 240//240 239//239
f 231//231 232//232 248//248 247//247
f 224//224 225//225 241//241 240//240
f 232//232 233//233 249//249 248//248
f 225//225 226//226 242//242 241//241
f 233//233 234//234 250//250 249//249
f 226//226 227//227 243//243 242//242
f 234//234 235//235 251//251 250//250
f 227//227 228//228 244//244 243//243
f 235//235 236//236 252//252 251//251
f 236//236 237//237 253//253 252//252
f 249//249 250//250 266//266 265//265
f 242//242 243//243 259//259 258//258
f 250//250 251//251 267//267 266//266
f 243//243 244//244 260//260 259//259
f 251//251 252//252 268//268 267//267
f 252//252 253//253 269//269 268//268
f 238//238 239//239 255//255 254//254
f 253//253 93//93 269//269
f 246//246 247//247 263//263 262//262
f 239//239 240//240 256//256 255//255
f 247//247 248//248 264//264 263//263
f 240//240 241//241 257//257 256//256
f 248//248 249//249 265//265 264//264
f 241//241 242//242 258//258 257//257
f 269//269 93//93 285//285
f 262//262 263//263 279//279 278//278
f 255//255 256//256 272//272 271//271
f 263//263 264//264 280//280 279//279
f 256//256 257//257 273//273 272//272
f 264//264 265//265 281//281 280//280
f 257//257 258//258 274//274 273//273
f 265//265 266//266 282//282 281//281
f 258//258 259//259 275//275 274//274
f 266//266 267//267 283//283 282//282
f 259//259 260//260 276//276 275//275
f 267//267 268//268 284//284 283//283
f 268//268 269//269 285//285 284//284
f 254//254 255//255 271//271 270//270
f 282//282 283//283 299//299 298//298
f 275//275 276//276 292//292 291//291
f 283//283 284//284 300//300 299//299
f 284//284 285//285 301//301 300//300
f 270//270 271//271 287//287 286//286
f 285//285 93//93 301//301
f 278//278 279//279 295//295 294//294
f 271//271 272//272 288//288 287//287
f 279//279 280//280 296//296 295//295
f 272//272 273//273 289//289 288//288
f 280//280 281//281 297//297 296//296
f 273//273 274//274 290//290 289//289
f 281//281 282//282 298//298 297//297
f 274//274 275//275 291//291 290//290
f 287//287 288//288 304//304 303//303
f 295//295 296//296 312//312 311//311
f 288//288 289//289 305//305 304//304
f 296//296 297//297 313//313 312//312
f 289//289 290//290 306//306 305//305
f 297//297 298//298 314//314 313//313
f 290//290 291//291 307//307 306//306
f 298//298 299//299 315//315 314//314
f 291//291 292//292 308//308 307//307
f 299//299 300//300 316//316 315//315
f 300//300 301//301 317//317 316//316
f 286//286 287//287 303//303 302//302
f 301//301 93//93 317//317
f 294//294 295//295 311//311 310//310
f 307//307 308//308 324//324 323//323
f 315//315 316//316 332//332 331//331
f 316//316 317//317 333//333 332//332
f 302//302 303//303 319//319 318//318
f 317//317 93//93 333//333
f 310//310 311//311 327//327 326//326
f 303//303 304//304 320//320 319//319
f 311//311 312//312 328//328 327//327
f 304//304 305//305 321//321 320//320
f 312//312 313//313 329//329 328//328
f 305//305 306//306 322//322 321//321
f 313//313 314//314 330//330 329//329
f 306//306 307//307 323//323 322//322
f 314//314 315//315 331//331 330//330
f 327//327 328//328 344//344 343//343
f 320//320 321//321 337//337 336//336
f 328//328 329//329 345//345 344//344
f 321//321 322//322 338//338 337//337
f 329//329 330//330 346//346 345//345
f 322//322 323//323 339//339 338//338
f 330//330 331//331 347//347 346//346
f 323//323 324//324 340//340 339//339
f 331//331 332//332 348//348 347//347
f 332//332 333//333 349//349 348//348
f 318//318 319//319 335//335 334//334
f 333//333 93//93 349//349
f 326//326 327//327 343//343 342//342
f 319//319 320//320 336//336 335//335
f 347//347 348//348 364//364 363//363
f 348//348 349//349 365//365 364//364
f 334//334 335//335 351//351 350//350
f 349//349 93//93 365//365
f 342//342 343//343 359//359 358//358
f 335//335 336//336 352//352 351//351
f 343//343 344//344 360//360 359//359
f 336//336 337//337 353//353 352//352
f 344//344 345//345 361//361 360//360
f 337//337 338//338 354//354 353//353
f 345//345 346//346 362//362 361//361
f 338//338 339//339 355//355 354//354
f 346//346 347//347 363//363 362//362
f 339//339 340//340 356//356 355//355
f 352//352 353//353 369//369 368//368
f 360//360 361//361 377//377 376//376
f 353//353 354//354 370//370 369//369
f 361//361 362//362 378//378 377//377
f 354//354 355//355 371//371 370//370
f 362//362 363//363 379//379 378//378
f 355//355 356//356 372//372 371//371
f 363//363 364//364 380//380 379//379
f 364//364 365//365 381//381 380//380
f 350//350 351//351 367//367 366//366
f 365//365 93//93 381//381
f 358//358 359//359 375//375 374//374
f 351//351 352//352 368//368 367//367
f 359//359 360//360 376//376 375//375
f 380//380 381//381 397//397 396//396
f 366//366 367//367 383//383 382//382
f 381//381 93//93 397//397
f 374//374 375//375 391//391 390//390
f 367//367 368//368 384//384 383//383
f 375//375 376//376 392//392 391//391
f 368//368 369//369 385//385 384//384
f 376//376 377//377 393//393 392//392
f 369//369 370//370 386//386 385//385
f 377//377 378//378 394//394 393//393
f 370//370 371//371 387//387 386//386
f 378//378 379//379 395//395 394//394
f 371//371 372//372 388//388 387//387
f 379//379 380//380 396//396 395//395
f 392//392 393//393 409//409 408//408
f 385//385 386//386 402//402 401//401
f 393//393 394//394 410//410 409//409
f 386//386 387//387 403//403 402//402
f 394//394 395//395 411//411 410//410
f 387//387 388//388 404//404 403//403
f 395//395 396//396 412//412 411//411
f 396//396 397//397 413//413 412//412
f 382//382 383//383 399//399 398//398
f 397//397 93//93 413//413
f 390//390 391//391 407//407 406//406
f 383//383 384//384 400//400 399//399
f 391//391 392//392 408//408 407//407
f 384//384 385//385 401//401 400//400
f 412//412 413//413 429//429 428//428
f 398//398 399//399 415//415 414//414
f 413//413 93//93 429//429
f 406//406 407//407 423//423 422//422
f 399//399 400//400 416//416 415//415
f 407//407 408//408 424//424 423//423
f 400//400 401//401 417//417 416//416
f 408//408 409//409 425//425 424//424
f 401//401 402//402 418//418 417//417
f 409//409 410//410 426//426 425//425
f 402//402 403//403 419//419 418//418
f 410//410 411//411 427//427 426//426
f 403//403 404//404 420//420 419//419
f 411//411 412//412 428//428 427//427
f 425//425 426//426 442//442 441//441
f 418//418 419//419 435//435 434//434
f 426//426 427//427 443//443 442//442
f 419//419 420//420 436//436 435//435
f 427//427 428//428 444//444 443//443
f 428//428 429//429 445//445 444//444
f 414//414 415//415 431//431 430//430
f 429//429 93//93 445//445
f 422//422 423//423 439//439 438//438
f 415//415 416//416 432//432 431//431
f 423//423 424//424 440//440 439//439
f 416//416 417//417 433//433 432//432
f 424//424 425//425 441//441 440//440
f 417//417 418//418 434//434 433//433
f 430//430 431//431 447//447 446//446
f 445//445 93//93 461//461
f 438//438 439//439 455//455 454//454
f 431//431 432//432 448//448 447//447
f 439//439 440//440 456//456 455//455
f 432//432 433//433 449//449 448//448
f 440//440 441//441 457//457 456//456
f 433//433 434//434 450//450 449//449
f 441//441 442//442 458//458 457//457
f 434//434 435//435 451//451 450//450
f 442//442 443//443 459//459 458//458
f 435//435 436//436 452//452 451//451
f 443//443 444//444 460//460 459//459
f 444//444 445//445 461//461 460//460
f 450//450 451//451 467//467 466//466
f 458//458 459//459 475//475 474//474
f 451//451 452//452 468//468 467//467
f 459//459 460//460 476//476 475//475
f 460//460 461//461 477//477 476//476
f 446//446 447//447 463//463 462//462
f 461//461 93//93 477//477
f 454//454 455//455 471//471 470//470
f 447//447 448//448 464//464 463//463
f 455//455 456//456 472//472 471//471
f 448//448 449//449 465//465 464//464
f 456//456 457//457 473//473 472//472
f 449//449 450//450 466//466 465//465
f 457//457 458//458 474//474 473//473
f 470//470 471//471 487//487 486//486
f 463//463 464//464 480//480 479//479
f 471//471 472//472 488//488 487//487
f 464//464 465//465 481//481 480//480
f 472//472 473//473 489//489 488//488
f 465//465 466//466 482//482 481//481
f 473//473 474//474 490//490 489//489
f 466//466 467//467 483//483 482//482
f 474//474 475//475 491//491 490//490
f 467//467 468//468 484//484 483//483
f 475//475 476//476 492//492 491//491
f 476//476 477//477 493//493 492//492
f 462//462 463//463 479//479 478//478
f 477//477 93//93 493//493
f 490//490 491//491 507//507 506//506
f 483//483 484//484 500//500 499//499
f 491//491 492//492 508//508 507//507
f 492//492 493//493 509//509 508//508
f 478//478 479//479 495//495 494//494
f 493//493 93//93 509//509
f 486//486 487//487 503//503 502//502
f 479//479 480//480 496//496 495//495
f 487//487 488//488 504//504 503//503
f 480//480 481//481 497//497 496//496
f 488//488 489//489 505//505 504//504
f 481//481 482//482 498//498 497//497
f 489//489 490//490 506//506 505//505
f 482//482 483//483 499//499 498//498
f 495//495 496//496 3//3 2//2
f 503//503 504//504 512//512 8//8
f 496//496 497//497 4//4 3//3
f 504//504 505//505 9//9 512//512
f 497//497 498//498 5//5 4//4
f 505//505 506//506 513//513 9//9
f 498//498 499//499 510//510 5//5
f 506//506 507//507 10//10 513//513
f 499//499 500//500 511//511 510//510
f 507//507 508//508 11//11 10//10
f 508//508 509//509 12//12 11//11
f 494//494 495//495 2//2 1//1
f 509//509 93//93 12//12
f 502//502 503//503 8//8 7//7
f 13//13 29//29 45//45 61//61 77//77 94//94 110//110 126//126 142//142 158//158 174//174 190//190 206//206 222//222 238//238 254//254 270//270 286//286 302//302 318//318 334//334 350//350 366//366 382//382 398//398 414//414 430//430 446//446 462//462 478//478 494//494 1//1
usemtl Mat_Pin_Band
f 511//511 6//6 20//20 19//19
f 6//6 7//7 21//21 20//20
f 20//20 21//21 37//37 36//36
f 19//19 20//20 36//36 35//35
f 35//35 36//36 52//52 51//51
f 36//36 37//37 53//53 52//52
f 51//51 52//52 68//68 67//67
f 52//52 53//53 69//69 68//68
f 67//67 68//68 84//84 83//83
f 68//68 69//69 85//85 84//84
f 83//83 84//84 101//101 100//100
f 84//84 85//85 102//102 101//101
f 100//100 101//101 117//117 116//116
f 101//101 102//102 118//118 117//117
f 116//116 117//117 133//133 132//132
f 117//117 118//118 134//134 133//133
f 132//132 133//133 149//149 148//148
f 133//133 134//134 150//150 149//149
f 148//148 149//149 165//165 164//164
f 149//149 150//150 166//166 165//165
f 164//164 165//165 181//181 180//180
f 165//165 166//166 182//182 181//181
f 180//180 181//181 197//197 196//196
f 181//181 182//182 198//198 197//197
f 197//197 198//198 214//214 213//213
f 196//196 197//197 213//213 212//212
f 212//212 213//213 229//229 228//228
f 213//213 214//214 230//230 229//229
f 229//229 230//230 246//246 245//245
f 228//228 229//229 245//245 244//244
f 244//244 245//245 261//261 260//260
f 245//245 246//246 262//262 261//261
f 260//260 261//261 277//277 276//276
f 261//261 262//262 278//278 277//277
f 276//276 277//277 293//293 292//292
f 277//277 278//278 294//294 293//293
f 292//292 293//293 309//309 308//308
f 293//293 294//294 310//310 309//309
f 308//308 309//309 325//325 324//324
f 309//309 310//310 326//326 325//325
f 324//324 325//325 341//341 340//340
f 325//325 326//326 342//342 341//341
f 340//340 341//341 357//357 356//356
f 341//341 342//342 358//358 357//357
f 356//356 357//357 373//373 372//372
f 357//357 358//358 374//374 373//373
f 372//372 373//373 389//389 388//388
f 373//373 374//374 390//390 389//389
f 388//388 389//389 405//405 404//404
f 389//389 390//390 406//406 405//405
f 405//405 406//406 422//422 421//421
f 404//404 405//405 421//421 420//420
f 420//420 421//421 437//437 436//436
f 421//421 422//422 438//438 437//437
f 436//436 437//437 453//453 452//452
f 437//437 438//438 454//454 453//453
f 452//452 453//453 469//469 468//468
f 453//453 454//454 470//470 469//469
f 468//468 469//469 485//485 484//484
f 469//469 470//470 486//486 485//485
f 484//484 485//485 501//501 500//500
f 485//485 486//486 502//502 501//501
f 500//500 501//501 6//6 511//511
f 501//501 502//502 7//7 6//6
